<svg xmlns="http://www.w3.org/2000/svg"
 xmlns:xlink="http://www.w3.org/1999/xlink"
 width="17px" height="18px"  viewBox="0 0 17 18">
<path fill-rule="evenodd"  fill="#fc5f45"
 d="M15.996704,8.766602 C15.996704,10.850098 15.267883,12.621094 13.810547,14.078613 C12.352844,15.537598 10.583252,16.266602 8.501404,16.266602 C6.4189453,16.266602 4.649475,15.537598 3.1921387,14.078613 C1.734436,12.621094 1.0059814,10.850098 1.0059814,8.766602 C1.0059814,6.6831055 1.734436,4.913086 3.1921387,3.4536133 C4.649475,1.9951172 6.4189453,1.2666016 8.501404,1.2666016 C10.583252,1.2666016 12.352844,1.9951172 13.810547,3.4536133 C15.267883,4.913086 15.996704,6.6831055 15.996704,8.766602 ZM14.747498,8.766602 C14.747498,7.0473633 14.135681,5.57666 12.912781,4.352051 C11.689209,3.1289062 10.219055,2.5161133 8.501404,2.5161133 C6.7836914,2.5161133 5.3131104,3.1289062 4.090088,4.352051 C2.866455,5.57666 2.255249,7.0473633 2.255249,8.766602 C2.255249,10.484863 2.866455,11.956543 4.090088,13.180176 C5.3131104,14.405273 6.7836914,15.016113 8.501404,15.016113 C10.219055,15.016113 11.689209,14.405273 12.912781,13.180176 C14.135681,11.956543 14.747498,10.484863 14.747498,8.766602 ZM8.501404,5.0166016 C9.542053,5.0166016 10.427124,5.3808594 11.156006,6.1098633 C11.884277,6.8393555 12.249023,7.7250977 12.249023,8.766602 C12.249023,9.807617 11.884277,10.693848 11.156006,11.422363 C10.427124,12.151855 9.542053,12.516602 8.501404,12.516602 C7.460144,12.516602 6.5751343,12.151855 5.846863,11.422363 C5.117859,10.693848 4.753723,9.807617 4.753723,8.766602 C4.753723,7.7250977 5.117859,6.8393555 5.846863,6.1098633 C6.5751343,5.3808594 7.460144,5.0166016 8.501404,5.0166016 Z"/>
</svg>