<svg xmlns="http://www.w3.org/2000/svg"
 xmlns:xlink="http://www.w3.org/1999/xlink"
 width="17px" height="18px"  viewBox="0 0 17 18">
<path fill-rule="evenodd"  fill="#38c695"
 d="M15.996704,8.51709 C15.996704,10.598145 15.267822,12.366699 13.810547,13.822754 C12.352783,15.279297 10.583191,16.007324 8.501404,16.007324 C6.4189453,16.007324 4.649475,15.279297 3.1921387,13.822754 C1.734436,12.366699 1.0061035,10.598145 1.0061035,8.51709 C1.0061035,6.4370117 1.734436,4.668457 3.1921387,3.211914 C4.649475,1.7558594 6.4189453,1.027832 8.501404,1.027832 C10.583191,1.027832 12.352783,1.7558594 13.810547,3.211914 C15.267822,4.668457 15.996704,6.4370117 15.996704,8.51709 ZM14.747498,8.51709 C14.747498,6.8012695 14.135681,5.3325195 12.912781,4.109375 C11.689148,2.8867188 10.219055,2.275879 8.501404,2.275879 C6.7837524,2.275879 5.3131104,2.8867188 4.090088,4.109375 C2.866455,5.3325195 2.255249,6.8012695 2.255249,8.51709 C2.255249,10.233887 2.866455,11.703613 4.090088,12.925293 C5.3131104,14.1484375 6.7837524,14.758789 8.501404,14.758789 C10.219055,14.758789 11.689148,14.1484375 12.912781,12.925293 C14.135681,11.703613 14.747498,10.233887 14.747498,8.51709 ZM8.501404,4.772461 C9.542053,4.772461 10.427124,5.137207 11.156006,5.864746 C11.884277,6.5932617 12.2491455,7.477539 12.2491455,8.51709 C12.2491455,9.557617 11.884277,10.441895 11.156006,11.169922 C10.427124,11.898926 9.542053,12.262207 8.501404,12.262207 C7.460205,12.262207 6.5751343,11.898926 5.846863,11.169922 C5.117859,10.441895 4.753723,9.557617 4.753723,8.51709 C4.753723,7.477539 5.117859,6.5932617 5.846863,5.864746 C6.5751343,5.137207 7.460205,4.772461 8.501404,4.772461 Z"/>
</svg>