<svg xmlns="http://www.w3.org/2000/svg"
 xmlns:xlink="http://www.w3.org/1999/xlink"
 width="17px" height="19px"  viewBox="0 0 17 19">
<path fill-rule="evenodd"  fill="#b27cf5"
 d="M15.996704,9.48291 C15.996704,11.575684 15.267822,13.353027 13.810547,14.816406 C12.352783,16.28125 10.583252,17.012695 8.501465,17.012695 C6.4189453,17.012695 4.649414,16.28125 3.1921387,14.816406 C1.734375,13.353027 1.0061035,11.575684 1.0061035,9.48291 C1.0061035,7.39209 1.734375,5.614746 3.1921387,4.149414 C4.649414,2.6860352 6.4189453,1.9541016 8.501465,1.9541016 C10.583252,1.9541016 12.352783,2.6860352 13.810547,4.149414 C15.267822,5.614746 15.996704,7.39209 15.996704,9.48291 ZM14.747437,9.48291 C14.747437,7.758301 14.135742,6.2807617 12.91272,5.051758 C11.689209,3.8232422 10.218994,3.208496 8.501465,3.208496 C6.7838135,3.208496 5.3131104,3.8232422 4.090088,5.051758 C2.866455,6.2807617 2.255249,7.758301 2.255249,9.48291 C2.255249,11.208496 2.866455,12.686035 4.090088,13.915039 C5.3131104,15.143555 6.7838135,15.758301 8.501465,15.758301 C10.218994,15.758301 11.689209,15.143555 12.91272,13.915039 C14.135742,12.686035 14.747437,11.208496 14.747437,9.48291 ZM8.501465,5.7182617 C9.541992,5.7182617 10.427124,6.084961 11.156006,6.8164062 C11.884277,7.5493164 12.2491455,8.4375 12.2491455,9.48291 C12.2491455,10.529297 11.884277,11.418457 11.156006,12.149414 C10.427124,12.881836 9.541992,13.247559 8.501465,13.247559 C7.460205,13.247559 6.5751953,12.881836 5.8468018,12.149414 C5.117798,11.418457 4.753662,10.529297 4.753662,9.48291 C4.753662,8.4375 5.117798,7.5493164 5.8468018,6.8164062 C6.5751953,6.084961 7.460205,5.7182617 8.501465,5.7182617 Z"/>
</svg>