<svg xmlns="http://www.w3.org/2000/svg"
 xmlns:xlink="http://www.w3.org/1999/xlink"
 width="18px" height="19px"  viewBox="0 0 18 19">
<path fill-rule="evenodd"  fill="#feb960"
 d="M16.955322,9.496094 C16.955322,11.583496 16.227295,13.35791 14.771606,14.818848 C13.31543,16.280273 11.5477295,17.010742 9.468262,17.010742 C7.3881836,17.010742 5.6204834,16.280273 4.164917,14.818848 C2.7087402,13.35791 1.9812012,11.583496 1.9812012,9.496094 C1.9812012,7.4086914 2.7087402,5.6342773 4.164917,4.1723633 C5.6204834,2.711914 7.3881836,1.9804688 9.468262,1.9804688 C11.5477295,1.9804688 13.31543,2.711914 14.771606,4.1723633 C16.227295,5.6342773 16.955322,7.4086914 16.955322,9.496094 ZM15.707397,9.496094 C15.707397,7.773926 15.096313,6.2998047 13.874634,5.073242 C12.652466,3.8466797 11.184082,3.2333984 9.468262,3.2333984 C7.7524414,3.2333984 6.2834473,3.8466797 5.0617676,5.073242 C3.8395996,6.2998047 3.229004,7.773926 3.229004,9.496094 C3.229004,11.217773 3.8395996,12.692383 5.0617676,13.918945 C6.2834473,15.145508 7.7524414,15.758301 9.468262,15.758301 C11.184082,15.758301 12.652466,15.145508 13.874634,13.918945 C15.096313,12.692383 15.707397,11.217773 15.707397,9.496094 ZM9.468262,5.737793 C10.50769,5.737793 11.391724,6.104004 12.119995,6.8344727 C12.847412,7.5649414 13.211792,8.452148 13.211792,9.496094 C13.211792,10.540039 12.847412,11.427246 12.119995,12.157227 C11.391724,12.888184 10.50769,13.253418 9.468262,13.253418 C8.428223,13.253418 7.5441895,12.888184 6.8166504,12.157227 C6.088501,11.427246 5.7247314,10.540039 5.7247314,9.496094 C5.7247314,8.452148 6.088501,7.5649414 6.8166504,6.8344727 C7.5441895,6.104004 8.428223,5.737793 9.468262,5.737793 Z"/>
</svg>