<svg xmlns="http://www.w3.org/2000/svg"
 xmlns:xlink="http://www.w3.org/1999/xlink"
 width="53px" height="50px"  viewBox="0 0 53 50">
<path fill-rule="evenodd"  fill="#fc5f45"
 d="M7.323059,46.43701 C7.323059,46.43701 50.767822,46.43701 50.767822,46.43701 C50.767822,46.43701 50.767822,48.395508 50.767822,48.395508 C50.767822,48.395508 5.366028,48.395508 5.366028,48.395508 C5.366028,48.395508 5.366028,40.464355 5.366028,40.464355 C5.366028,40.464355 1.4521484,40.464355 1.4521484,40.464355 C1.4521484,40.464355 1.4521484,38.506836 1.4521484,38.506836 C1.4521484,38.506836 5.366028,38.506836 5.366028,38.506836 C5.366028,38.506836 5.366028,30.575684 5.366028,30.575684 C5.366028,30.575684 1.4521484,30.575684 1.4521484,30.575684 C1.4521484,30.575684 1.4521484,28.618164 1.4521484,28.618164 C1.4521484,28.618164 5.366028,28.618164 5.366028,28.618164 C5.366028,28.618164 5.366028,20.785156 5.366028,20.785156 C5.366028,20.785156 1.4521484,20.785156 1.4521484,20.785156 C1.4521484,20.785156 1.4521484,18.82666 1.4521484,18.82666 C1.4521484,18.82666 5.366028,18.82666 5.366028,18.82666 C5.366028,18.82666 5.366028,10.896484 5.366028,10.896484 C5.366028,10.896484 1.4521484,10.896484 1.4521484,10.896484 C1.4521484,10.896484 1.4521484,8.937988 1.4521484,8.937988 C1.4521484,8.937988 5.366028,8.937988 5.366028,8.937988 C5.366028,8.937988 5.366028,1.0068359 5.366028,1.0068359 C5.366028,1.0068359 7.323059,1.0068359 7.323059,1.0068359 C7.323059,1.0068359 7.323059,31.849121 7.323059,31.849121 C7.323059,31.849121 21.21759,15.399902 21.21759,15.399902 C21.21759,15.399902 31.00238,25.288574 31.00238,25.288574 C31.00238,25.288574 49.985046,2.378418 49.985046,2.378418 C49.985046,2.378418 51.5506,3.5527344 51.5506,3.5527344 C51.5506,3.5527344 31.00238,28.030273 31.00238,28.030273 C31.00238,28.030273 21.21759,18.239258 21.21759,18.239258 C21.21759,18.239258 7.323059,34.98242 7.323059,34.98242 C7.323059,34.98242 7.323059,46.43701 7.323059,46.43701 Z"/>
</svg>