<svg xmlns="http://www.w3.org/2000/svg"
 xmlns:xlink="http://www.w3.org/1999/xlink"
 width="49px" height="53px"  viewBox="0 0 49 53">
<path fill-rule="evenodd"  fill="#38c695"
 d="M8.698853,30.971191 C5.208374,34.4917 3.4639893,38.729492 3.4639893,43.68164 C3.4639893,43.68164 3.4639893,47.690918 3.4639893,47.690918 C3.4639893,47.690918 25.479858,47.690918 25.479858,47.690918 C25.479858,47.690918 25.479858,49.646973 25.479858,49.646973 C25.479858,49.646973 1.4090576,49.646973 1.4090576,49.646973 C1.4090576,49.646973 1.4090576,43.68164 1.4090576,43.68164 C1.4090576,39.120117 2.7789307,35.0459 5.518738,31.46045 C8.258484,27.875977 11.715271,25.529297 15.890625,24.42041 C13.933716,23.378418 12.334534,21.911621 11.09613,20.020508 C9.856201,18.130371 9.236938,16.011719 9.236938,13.664551 C9.236938,10.34082 10.426453,7.504883 12.808411,5.1586914 C15.188904,2.8120117 18.009766,1.6381836 21.272339,1.6381836 C24.599243,1.6381836 27.436829,2.8120117 29.785156,5.1586914 C32.133606,7.504883 33.30774,10.34082 33.30774,13.664551 C33.30774,16.011719 32.703857,18.14746 31.497559,20.069336 C30.289734,21.993164 28.67517,23.442383 26.654053,24.42041 C30.045166,25.268555 33.07843,27.028809 35.753906,29.700195 C35.753906,29.700195 32.720703,29.700195 32.720703,29.700195 C29.393799,27.028809 25.641968,25.691406 21.468018,25.691406 C16.444214,25.691406 12.187683,27.45166 8.698853,30.971191 ZM21.468018,23.638184 C24.272095,23.638184 26.654053,22.677246 28.610962,20.753418 C30.568054,18.832031 31.546509,16.46875 31.546509,13.664551 C31.546509,10.863281 30.568054,8.5 28.610962,6.576172 C26.654053,4.654785 24.272095,3.6923828 21.468018,3.6923828 C18.662537,3.6923828 16.297363,4.654785 14.374084,6.576172 C12.449219,8.5 11.487549,10.863281 11.487549,13.664551 C11.487549,16.46875 12.449219,18.832031 14.374084,20.753418 C16.297363,22.677246 18.662537,23.638184 21.468018,23.638184 ZM47.593628,45.73584 C47.593628,45.73584 41.52704,45.73584 41.52704,45.73584 C41.52704,45.73584 41.52704,51.700195 41.52704,51.700195 C41.52704,51.700195 39.57007,51.700195 39.57007,51.700195 C39.57007,51.700195 39.57007,45.73584 39.57007,45.73584 C39.57007,45.73584 33.50348,45.73584 33.50348,45.73584 C33.50348,45.73584 33.50348,43.68164 33.50348,43.68164 C33.50348,43.68164 39.57007,43.68164 39.57007,43.68164 C39.57007,43.68164 39.57007,37.717773 39.57007,37.717773 C39.57007,37.717773 41.52704,37.717773 41.52704,37.717773 C41.52704,37.717773 41.52704,43.68164 41.52704,43.68164 C41.52704,43.68164 47.593628,43.68164 47.593628,43.68164 C47.593628,43.68164 47.593628,45.73584 47.593628,45.73584 Z"/>
</svg>