<svg xmlns="http://www.w3.org/2000/svg"
 xmlns:xlink="http://www.w3.org/1999/xlink"
 width="53px" height="46px"  viewBox="0 0 53 46">
<path fill-rule="evenodd"  fill="#b27cf5"
 d="M51.550537,14.685547 C51.550537,18.387695 50.244873,21.550781 47.63672,24.17041 C47.63672,24.17041 26.501465,44.222168 26.501465,44.222168 C26.501465,44.222168 5.366089,24.3667 5.366089,24.3667 C2.7563477,21.681152 1.4521484,18.469238 1.4521484,14.733887 C1.4521484,10.999023 2.7563477,7.821289 5.366089,5.2001953 C7.9101562,2.6445312 11.171265,1.3662109 15.150879,1.3662109 C18.869263,1.3662109 22.000366,2.6445312 24.544312,5.2001953 C25.587158,6.5112305 26.305664,7.4941406 26.697144,8.148926 C27.218384,7.101074 27.935425,6.118164 28.849731,5.2001953 C31.393799,2.6445312 34.525024,1.3662109 38.243164,1.3662109 C41.961426,1.3662109 45.09253,2.6445312 47.63672,5.2001953 C50.244873,7.821289 51.550537,10.984375 51.550537,14.685547 ZM49.39795,14.439453 C49.39795,11.294434 48.287964,8.60791 46.071167,6.3793945 C43.982666,4.152832 41.308594,3.0375977 38.047485,3.0375977 C34.850708,3.0375977 32.143066,4.152832 29.926025,6.3793945 C29.403198,7.0351562 28.849731,7.789551 28.262695,8.639648 C28.262695,8.639648 26.501465,11.588867 26.501465,11.588867 C26.501465,11.588867 24.73999,8.639648 24.73999,8.639648 C24.348633,7.98584 23.793701,7.2319336 23.07666,6.3793945 C20.858154,4.152832 18.150635,3.0375977 14.9552,3.0375977 C11.758301,3.0375977 9.018555,4.217285 6.735962,6.576172 C4.517578,8.804199 3.4090576,11.490723 3.4090576,14.63623 C3.4090576,17.847656 4.517578,20.567383 6.735962,22.794434 C6.735962,22.794434 26.501465,41.765625 26.501465,41.765625 C26.501465,41.765625 46.266846,22.794434 46.266846,22.794434 C48.353638,20.698242 49.39795,17.913086 49.39795,14.439453 C49.39795,14.439453 49.39795,14.439453 49.39795,14.439453 Z"/>
</svg>