<svg xmlns="http://www.w3.org/2000/svg"
 xmlns:xlink="http://www.w3.org/1999/xlink"
 width="53px" height="48px"  viewBox="0 0 53 48">
<path fill-rule="evenodd"  fill="#feb960"
 d="M51.489746,19.307129 C51.489746,19.307129 49.534912,19.307129 49.534912,19.307129 C49.534912,19.307129 49.534912,46.285645 49.534912,46.285645 C49.534912,46.285645 3.4014893,46.285645 3.4014893,46.285645 C3.4014893,46.285645 3.4014893,19.307129 3.4014893,19.307129 C3.4014893,19.307129 1.4466553,19.307129 1.4466553,19.307129 C1.4466553,19.307129 1.4466553,11.557129 1.4466553,11.557129 C1.4466553,11.557129 17.378418,11.557129 17.378418,11.557129 C16.401001,10.445801 15.9123535,9.17041 15.9123535,7.730957 C15.9123535,6.097168 16.465088,4.723633 17.573853,3.6108398 C18.681152,2.4995117 20.049438,1.9423828 21.678955,1.9423828 C23.829224,1.9423828 25.42517,2.7607422 26.468262,4.395508 C27.509766,2.7607422 29.1073,1.9423828 31.257446,1.9423828 C32.885498,1.9423828 34.253906,2.4995117 35.36255,3.6108398 C36.46985,4.723633 37.02417,6.097168 37.02417,7.730957 C37.02417,9.17041 36.535522,10.445801 35.558105,11.557129 C35.558105,11.557129 51.489746,11.557129 51.489746,11.557129 C51.489746,11.557129 51.489746,19.307129 51.489746,19.307129 ZM28.56958,4.984375 C27.819824,5.769043 27.445679,6.685547 27.445679,7.730957 C27.445679,7.730957 27.445679,11.557129 27.445679,11.557129 C27.445679,11.557129 31.257446,11.557129 31.257446,11.557129 C32.299072,11.557129 33.212402,11.181152 33.994263,10.428711 C34.776245,9.677734 35.167114,8.777832 35.167114,7.730957 C35.167114,6.619629 34.79138,5.6875 34.04309,4.9350586 C33.293213,4.184082 32.364746,3.8066406 31.257446,3.8066406 C30.214478,3.8066406 29.317993,4.1987305 28.56958,4.984375 ZM18.94226,10.428711 C19.724121,11.181152 20.635864,11.557129 21.678955,11.557129 C21.678955,11.557129 25.490845,11.557129 25.490845,11.557129 C25.490845,11.557129 25.490845,7.730957 25.490845,7.730957 C25.490845,6.685547 25.115112,5.769043 24.366821,4.984375 C23.616943,4.1987305 22.720581,3.8066406 21.678955,3.8066406 C20.57019,3.8066406 19.641724,4.184082 18.893433,4.9350586 C18.143433,5.6875 17.76941,6.619629 17.76941,7.730957 C17.76941,8.777832 18.160278,9.677734 18.94226,10.428711 ZM3.4014893,17.345703 C3.4014893,17.345703 25.490845,17.345703 25.490845,17.345703 C25.490845,17.345703 25.490845,13.519043 25.490845,13.519043 C25.490845,13.519043 3.4014893,13.519043 3.4014893,13.519043 C3.4014893,13.519043 3.4014893,17.345703 3.4014893,17.345703 ZM5.258545,44.421875 C5.258545,44.421875 25.490845,44.421875 25.490845,44.421875 C25.490845,44.421875 25.490845,19.307129 25.490845,19.307129 C25.490845,19.307129 5.258545,19.307129 5.258545,19.307129 C5.258545,19.307129 5.258545,44.421875 5.258545,44.421875 ZM47.67798,19.307129 C47.67798,19.307129 27.445679,19.307129 27.445679,19.307129 C27.445679,19.307129 27.445679,44.421875 27.445679,44.421875 C27.445679,44.421875 47.67798,44.421875 47.67798,44.421875 C47.67798,44.421875 47.67798,19.307129 47.67798,19.307129 ZM49.534912,13.519043 C49.534912,13.519043 27.445679,13.519043 27.445679,13.519043 C27.445679,13.519043 27.445679,17.345703 27.445679,17.345703 C27.445679,17.345703 49.534912,17.345703 49.534912,17.345703 C49.534912,17.345703 49.534912,13.519043 49.534912,13.519043 Z"/>
</svg>