<svg xmlns="http://www.w3.org/2000/svg" width="47" height="52" viewBox="0 0 47 52">
	<style type="text/css">
		.st0{fill:#000000;}
	</style>
	<path class="st0" d="M45.24,41.75L31.45,26L45.24,10.24C47.58,7.89 47.58,4.1 45.24,1.75C42.89,-0.58 39.09,-0.58 36.75,1.75L23.5,16.9L10.24,1.75C7.9,-0.58 4.1,-0.58 1.75,1.75C-0.58,4.1 -0.58,7.89 1.75,10.24L15.54,26L1.75,41.75C-0.58,44.1 -0.58,47.89 1.75,50.24C4.09,52.58 7.89,52.58 10.24,50.24L23.5,35.09L36.75,50.24C39.1,52.58 42.9,52.58 45.24,50.24C47.58,47.89 47.58,44.1 45.24,41.75"/>
</svg>