<svg xmlns="http://www.w3.org/2000/svg" width="92" height="92" viewBox="0 0 92 92">
	<style type="text/css">
		.st0{fill:#000000;}
	</style>
	<path class="st0" d="M60.3,50.52C65.46,64.7 67.55,76.23 67.95,78.58C76.77,72.62 83.03,63.18 84.78,52.23C84,51.97 73,48.49 60.3,50.52M54.45,36.59C55.36,38.46 56.24,40.37 57.06,42.29C57.35,42.96 57.63,43.64 57.9,44.32C71.47,42.61 84.83,45.51 85.27,45.6C85.17,36.28 81.84,27.73 76.33,21.04C76.25,21.16 69.95,30.26 54.45,36.59M52.68,52.42C29.62,60.46 22.01,76.62 21.86,76.95C28.52,82.15 36.89,85.28 45.99,85.28C51.44,85.28 56.62,84.17 61.33,82.17C60.75,78.73 58.46,66.7 52.94,52.34C52.85,52.37 52.77,52.39 52.68,52.42M45.99,92C20.59,92 0,71.4 0,46C0,20.59 20.59,0 45.99,0C71.4,0 91.99,20.59 91.99,46C91.99,71.4 71.4,92 45.99,92M71.94,16.51C65.02,10.42 55.94,6.71 45.99,6.71C42.8,6.71 39.71,7.1 36.74,7.82C37.34,8.61 44.71,18.41 51.42,30.74C66.24,25.18 71.84,16.67 71.94,16.51M36.58,7.85C36.55,7.86 36.51,7.87 36.48,7.88C36.54,7.86 36.58,7.86 36.58,7.86ZM21.85,76.96L21.86,76.95C21.57,76.72 21.25,76.51 20.97,76.27C21.49,76.69 21.85,76.96 21.85,76.96M48.71,46.3C49.23,46.13 49.74,45.98 50.26,45.83C49.28,43.59 48.2,41.36 47.07,39.15C26.85,45.21 7.43,44.77 6.74,44.75C6.73,45.16 6.71,45.58 6.71,46C6.71,56.1 10.53,65.3 16.79,72.26C16.78,72.25 16.76,72.23 16.76,72.23C16.76,72.23 27.52,53.15 48.71,46.3M43.82,33.1C37.03,21.03 29.77,11.19 29.23,10.46C18.28,15.64 10.1,25.73 7.55,37.9C8.58,37.91 24.96,38.11 43.82,33.1"/>
</svg>