<svg xmlns="http://www.w3.org/2000/svg" width="90" height="88.73" viewBox="0 0 90 88.73">
	<style type="text/css">
		.st0{fill:#000000;}
	</style>
	<path class="st0" d="M0.5 26.83L19.74 26.83L19.74 88.73L0.5 88.73ZM0.5,88.73M20.37,9.62C20.37,14.93 16.45,19.24 9.99,19.24C3.92,19.24 0,14.93 0,9.62C0,4.17 4.05,0 10.25,0C16.45,0 20.25,4.17 20.37,9.62"/>
	<path class="st0" d="M31.26,46.58C31.26,38.86 31,32.4 30.75,26.83L47.46,26.83L48.35,35.44L48.73,35.44C51.26,31.39 57.46,25.44 67.84,25.44C80.5,25.44 89.99,33.92 89.99,52.15L89.99,88.73L70.75,88.73L70.75,54.43C70.75,46.45 67.97,41.01 61,41.01C55.69,41.01 52.53,44.68 51.13,48.22C50.63,49.49 50.5,51.26 50.5,53.04L50.5,88.73L31.26,88.73Z"/>
</svg>