<svg xmlns="http://www.w3.org/2000/svg" width="77.79" height="100" viewBox="0 0 77.79 100">
	<style type="text/css">
		.st0{fill:#000000;}
	</style>
	<path class="st0" d="M31.97,66.13C29.35,79.9 26.14,93.1 16.64,100C13.71,79.19 20.95,63.56 24.31,46.97C18.58,37.32 25,17.91 37.09,22.69C51.96,28.58 24.2,58.56 42.84,62.3C62.29,66.21 70.23,28.55 58.17,16.3C40.74,-1.37 7.44,15.9 11.53,41.22C12.53,47.41 18.92,49.29 14.09,57.83C2.93,55.36 -0.39,46.56 0.03,34.83C0.72,15.63 17.28,2.19 33.89,0.33C54.9,-2.01 74.61,8.04 77.33,27.8C80.4,50.11 67.85,74.26 45.39,72.52C39.3,72.05 36.75,69.03 31.97,66.13"/>
</svg>