<svg xmlns="http://www.w3.org/2000/svg" width="271.89" height="229.11" viewBox="0 0 271.89 229.11">
	<style type="text/css">
		.st1{fill:#ffd200;}
		.st0{fill:#ffffff;}
	</style>
	<path class="st0" d="M195.07,155.54L33.15,155.54C29.57,155.54 26.48,153.07 25.69,149.59L0.19,37.39C-0.32,35.12 0.22,32.74 1.67,30.92C3.12,29.1 5.32,28.04 7.65,28.04L173.48,28.04L162.73,17.29C159.74,14.31 159.74,9.46 162.73,6.47C165.71,3.49 170.56,3.49 173.55,6.47L197.36,30.28C199.54,32.47 200.2,35.76 199.02,38.62C197.83,41.48 195.04,43.34 191.95,43.34L17.23,43.34L39.25,140.24L189.28,140.24L227.23,5.57C228.16,2.27 231.17,0 234.59,0L264.24,0C268.46,0 271.89,3.42 271.89,7.64C271.89,11.87 268.46,15.29 264.24,15.29L240.39,15.29L202.43,149.97C201.5,153.27 198.5,155.54 195.07,155.54"/>
	<path class="st1" d="M163.19,182.45C154.55,182.45 147.51,189.48 147.51,198.13C147.51,206.78 154.55,213.81 163.19,213.81C171.84,213.81 178.88,206.78 178.88,198.13C178.88,189.48 171.84,182.45 163.19,182.45M163.19,229.11C146.11,229.11 132.21,215.21 132.21,198.13C132.21,181.04 146.11,167.15 163.19,167.15C180.28,167.15 194.18,181.04 194.18,198.13C194.18,215.21 180.28,229.11 163.19,229.11"/>
	<path class="st1" d="M62.73,182.45C54.08,182.45 47.04,189.48 47.04,198.13C47.04,206.78 54.08,213.81 62.73,213.81C71.37,213.81 78.41,206.78 78.41,198.13C78.41,189.48 71.37,182.45 62.73,182.45M62.73,229.11C45.64,229.11 31.74,215.21 31.74,198.13C31.74,181.04 45.64,167.15 62.73,167.15C79.81,167.15 93.71,181.04 93.71,198.13C93.71,215.21 79.81,229.11 62.73,229.11"/>
	<path class="st0" d="M170.08,65.02C168.11,65.02 166.14,64.26 164.64,62.75C161.67,59.75 161.69,54.91 164.69,51.94L186.56,30.26C189.56,27.29 194.41,27.31 197.38,30.31C200.35,33.31 200.33,38.15 197.33,41.13L175.46,62.8C173.97,64.28 172.03,65.02 170.08,65.02"/>
</svg>