<svg xmlns="http://www.w3.org/2000/svg"
 xmlns:xlink="http://www.w3.org/1999/xlink"
 width="51px" height="51px"  viewBox="0 0 51 51">
<path fill-rule="evenodd"  fill="#fc5f45"
 d="M49.260498,1.0078125 C49.260498,1.0078125 49.260498,49.046875 49.260498,49.046875 C49.260498,49.046875 1.2566528,49.046875 1.2566528,49.046875 C1.2566528,49.046875 1.2566528,1.0078125 1.2566528,1.0078125 C1.2566528,1.0078125 49.260498,1.0078125 49.260498,1.0078125 ZM3.2470093,2.9990234 C3.2470093,2.9990234 3.2470093,40.375977 3.2470093,40.375977 C3.2470093,40.375977 9.101135,33.58008 9.101135,33.58008 C9.101135,33.58008 15.072449,37.563477 15.072449,37.563477 C15.072449,37.563477 25.024445,23.50293 25.024445,23.50293 C25.024445,23.50293 34.039764,30.651367 34.039764,30.651367 C34.039764,30.651367 47.27014,11.669922 47.27014,11.669922 C47.27014,11.669922 47.27014,2.9990234 47.27014,2.9990234 C47.27014,2.9990234 3.2470093,2.9990234 3.2470093,2.9990234 ZM47.27014,47.054688 C47.27014,47.054688 47.27014,15.18457 47.27014,15.18457 C47.27014,15.18457 34.50818,33.58008 34.50818,33.58008 C34.50818,33.58008 25.492737,26.433594 25.492737,26.433594 C25.492737,26.433594 15.54071,40.25879 15.54071,40.25879 C15.54071,40.25879 9.452454,36.27539 9.452454,36.27539 C9.452454,36.27539 3.2470093,43.421875 3.2470093,43.421875 C3.2470093,43.421875 3.2470093,47.054688 3.2470093,47.054688 C3.2470093,47.054688 47.27014,47.054688 47.27014,47.054688 Z"/>
</svg>