<svg xmlns="http://www.w3.org/2000/svg"
 xmlns:xlink="http://www.w3.org/1999/xlink"
 width="49px" height="51px"  viewBox="0 0 49 51">
<path fill-rule="evenodd"  fill="#38c695"
 d="M46.042664,9.267578 C45.30072,10.166992 44.346863,10.732422 43.177246,10.966797 C43.177246,10.966797 43.177246,45.063477 43.177246,45.063477 C43.177246,45.063477 41.189087,45.063477 41.189087,45.063477 C41.189087,45.063477 41.189087,10.966797 41.189087,10.966797 C40.01953,10.732422 39.063843,10.146484 38.32373,9.208984 C37.581787,8.271484 37.212646,7.216797 37.212646,6.0458984 C37.212646,4.6396484 37.69873,3.4501953 38.67462,2.4716797 C39.64862,1.4960938 40.838196,1.0078125 42.2417,1.0078125 C43.566467,1.0078125 44.715942,1.4960938 45.691772,2.4716797 C46.66577,3.4501953 47.153748,4.6396484 47.153748,6.0458984 C47.153748,7.2958984 46.782715,8.371094 46.042664,9.267578 ZM44.28839,8.212891 C44.87317,7.6279297 45.165466,6.90625 45.165466,6.0458984 C45.165466,5.1865234 44.87317,4.463867 44.28839,3.8779297 C43.703613,3.2919922 43.02014,2.9990234 42.2417,2.9990234 C41.382812,2.9990234 40.66278,3.2919922 40.078003,3.8779297 C39.493286,4.463867 39.200928,5.1865234 39.200928,6.0458984 C39.200928,6.90625 39.493286,7.6279297 40.078003,8.212891 C40.66278,8.798828 41.382812,9.092773 42.2417,9.092773 C43.02014,9.092773 43.703613,8.798828 44.28839,8.212891 ZM10.137817,40.844727 C10.87793,41.782227 11.248962,42.836914 11.248962,44.007812 C11.248962,45.414062 10.760986,46.606445 9.786987,47.58203 C8.811157,48.55957 7.623352,49.046875 6.2199707,49.046875 C4.8932495,49.046875 3.7437744,48.55957 2.7697754,47.58203 C1.7939453,46.606445 1.3078003,45.414062 1.3078003,44.007812 C1.3078003,42.759766 1.677002,41.68457 2.4189453,40.786133 C3.1589966,39.88965 4.114685,39.32129 5.2843018,39.086914 C5.2843018,39.086914 5.2843018,4.991211 5.2843018,4.991211 C5.2843018,4.991211 7.272461,4.991211 7.272461,4.991211 C7.272461,4.991211 7.272461,39.086914 7.272461,39.086914 C8.442078,39.32129 9.395935,39.907227 10.137817,40.844727 ZM8.383545,46.17578 C8.968384,45.59082 9.260742,44.86914 9.260742,44.007812 C9.260742,43.149414 8.968384,42.42578 8.383545,41.84082 C7.798767,41.254883 7.0770264,40.961914 6.2199707,40.961914 C5.439575,40.961914 4.7579956,41.254883 4.1731567,41.84082 C3.588501,42.42578 3.2960815,43.149414 3.2960815,44.007812 C3.2960815,44.86914 3.588501,45.59082 4.1731567,46.17578 C4.7579956,46.76172 5.439575,47.054688 6.2199707,47.054688 C7.0770264,47.054688 7.798767,46.76172 8.383545,46.17578 ZM28.148804,21.863281 C28.888855,22.800781 29.259766,23.855469 29.259766,25.026367 C29.259766,26.199219 28.888855,27.25293 28.148804,28.19043 C27.40686,29.12793 26.45288,29.713867 25.283386,29.948242 C25.283386,29.948242 25.283386,45.063477 25.283386,45.063477 C25.283386,45.063477 23.178162,45.063477 23.178162,45.063477 C23.178162,45.063477 23.178162,29.948242 23.178162,29.948242 C22.008667,29.713867 21.052979,29.12793 20.312805,28.19043 C19.570862,27.25293 19.201782,26.199219 19.201782,25.026367 C19.201782,23.855469 19.570862,22.800781 20.312805,21.863281 C21.052979,20.926758 22.008667,20.339844 23.178162,20.105469 C23.178162,20.105469 23.178162,4.991211 23.178162,4.991211 C23.178162,4.991211 25.283386,4.991211 25.283386,4.991211 C25.283386,4.991211 25.283386,20.105469 25.283386,20.105469 C26.45288,20.339844 27.40686,20.926758 28.148804,21.863281 ZM27.271606,25.026367 C27.271606,24.24707 26.959045,23.543945 26.335938,22.917969 C25.710938,22.292969 25.009216,21.980469 24.230774,21.980469 C23.4505,21.980469 22.74878,22.292969 22.12561,22.917969 C21.500671,23.543945 21.189941,24.24707 21.189941,25.026367 C21.189941,25.808594 21.500671,26.511719 22.12561,27.135742 C22.74878,27.761719 23.4505,28.073242 24.230774,28.073242 C25.009216,28.073242 25.710938,27.761719 26.335938,27.135742 C26.959045,26.511719 27.271606,25.808594 27.271606,25.026367 Z"/>
</svg>