<svg xmlns="http://www.w3.org/2000/svg"
 xmlns:xlink="http://www.w3.org/1999/xlink"
 width="51px" height="51px"  viewBox="0 0 51 51">
<path fill-rule="evenodd"  fill="#b27cf5"
 d="M1.2568359,29.010742 C1.2568359,29.010742 21.279785,29.010742 21.279785,29.010742 C21.279785,29.010742 21.279785,49.046875 21.279785,49.046875 C21.279785,49.046875 1.2568359,49.046875 1.2568359,49.046875 C1.2568359,49.046875 1.2568359,29.010742 1.2568359,29.010742 ZM3.2473145,47.054688 C3.2473145,47.054688 19.289185,47.054688 19.289185,47.054688 C19.289185,47.054688 19.289185,31.00293 19.289185,31.00293 C19.289185,31.00293 3.2473145,31.00293 3.2473145,31.00293 C3.2473145,31.00293 3.2473145,47.054688 3.2473145,47.054688 ZM39.19507,12.489258 C39.19507,12.489258 24.558472,27.25293 24.558472,27.25293 C24.558472,27.25293 23.15332,25.84668 23.15332,25.84668 C23.15332,25.84668 37.907104,11.083984 37.907104,11.083984 C37.907104,11.083984 25.260986,11.083984 25.260986,11.083984 C25.260986,11.083984 25.260986,9.092773 25.260986,9.092773 C25.260986,9.092773 41.18579,9.092773 41.18579,9.092773 C41.18579,9.092773 41.18579,25.026367 41.18579,25.026367 C41.18579,25.026367 39.19507,25.026367 39.19507,25.026367 C39.19507,25.026367 39.19507,12.489258 39.19507,12.489258 ZM49.26526,1.0078125 C49.26526,1.0078125 49.26526,49.046875 49.26526,49.046875 C49.26526,49.046875 25.260986,49.046875 25.260986,49.046875 C25.260986,49.046875 25.260986,47.054688 25.260986,47.054688 C25.260986,47.054688 47.27466,47.054688 47.27466,47.054688 C47.27466,47.054688 47.27466,2.9990234 47.27466,2.9990234 C47.27466,2.9990234 3.2473145,2.9990234 3.2473145,2.9990234 C3.2473145,2.9990234 3.2473145,25.026367 3.2473145,25.026367 C3.2473145,25.026367 1.2568359,25.026367 1.2568359,25.026367 C1.2568359,25.026367 1.2568359,1.0078125 1.2568359,1.0078125 C1.2568359,1.0078125 49.26526,1.0078125 49.26526,1.0078125 Z"/>
</svg>