<svg xmlns="http://www.w3.org/2000/svg"
 xmlns:xlink="http://www.w3.org/1999/xlink"
 width="55px" height="49px"  viewBox="0 0 55 49">
<path fill-rule="evenodd"  fill="#feb960"
 d="M28.312347,36.939453 C28.312347,36.939453 28.312347,40.796875 28.312347,40.796875 C28.312347,40.796875 37.678986,46.05664 37.678986,46.05664 C37.678986,46.05664 36.74231,47.80957 36.74231,47.80957 C36.74231,47.80957 27.258575,42.55078 27.258575,42.55078 C27.258575,42.55078 17.774841,47.80957 17.774841,47.80957 C17.774841,47.80957 16.838257,46.05664 16.838257,46.05664 C16.838257,46.05664 26.204803,40.796875 26.204803,40.796875 C26.204803,40.796875 26.204803,36.939453 26.204803,36.939453 C26.204803,36.939453 1.2662964,36.939453 1.2662964,36.939453 C1.2662964,36.939453 1.2662964,1.0566406 1.2662964,1.0566406 C1.2662964,1.0566406 53.250977,1.0566406 53.250977,1.0566406 C53.250977,1.0566406 53.250977,36.939453 53.250977,36.939453 C53.250977,36.939453 28.312347,36.939453 28.312347,36.939453 ZM3.2566528,34.95215 C3.2566528,34.95215 51.260498,34.95215 51.260498,34.95215 C51.260498,34.95215 51.260498,3.0439453 51.260498,3.0439453 C51.260498,3.0439453 3.2566528,3.0439453 3.2566528,3.0439453 C3.2566528,3.0439453 3.2566528,34.95215 3.2566528,34.95215 ZM30.302704,8.770508 C30.302704,8.770508 32.176086,9.355469 32.176086,9.355469 C32.176086,9.355469 26.673218,27.822266 26.673218,27.822266 C26.673218,27.822266 20.233612,18.94043 20.233612,18.94043 C20.233612,18.94043 16.018646,27.238281 16.018646,27.238281 C16.018646,27.238281 10.398682,15.78418 10.398682,15.78418 C10.398682,15.78418 7.237488,27.472656 7.237488,27.472656 C7.237488,27.472656 5.2470093,27.004883 5.2470093,27.004883 C5.2470093,27.004883 9.813324,10.290039 9.813324,10.290039 C9.813324,10.290039 16.018646,22.796875 16.018646,22.796875 C16.018646,22.796875 19.999481,15.082031 19.999481,15.082031 C19.999481,15.082031 25.970642,23.381836 25.970642,23.381836 C25.970642,23.381836 30.302704,8.770508 30.302704,8.770508 ZM45.523468,14.731445 C46.694305,15.900391 47.279663,17.34375 47.279663,19.05664 C47.279663,20.69336 46.694305,22.095703 45.523468,23.264648 C44.3526,24.432617 42.90747,25.017578 41.191406,25.017578 C39.552277,25.017578 38.147278,24.432617 36.97644,23.264648 C35.805603,22.095703 35.220215,20.69336 35.220215,19.05664 C35.220215,17.34375 35.805603,15.900391 36.97644,14.731445 C38.147278,13.563477 39.552277,12.979492 41.191406,12.979492 C42.90747,12.979492 44.3526,13.563477 45.523468,14.731445 ZM44.059998,21.861328 C44.879517,21.083984 45.289307,20.149414 45.289307,19.05664 C45.289307,17.96582 44.879517,17.032227 44.059998,16.250977 C43.240356,15.473633 42.28363,15.082031 41.191406,15.082031 C40.097473,15.082031 39.160767,15.473633 38.38144,16.250977 C37.60025,17.032227 37.21057,17.96582 37.21057,19.05664 C37.21057,20.149414 37.62039,21.083984 38.440033,21.861328 C39.25952,22.641602 40.176086,23.030273 41.191406,23.030273 C42.28363,23.030273 43.240356,22.641602 44.059998,21.861328 Z"/>
</svg>