<svg xmlns="http://www.w3.org/2000/svg"
 xmlns:xlink="http://www.w3.org/1999/xlink"
 width="51px" height="51px"  viewBox="0 0 51 51">
<path fill-rule="evenodd"  fill="#fc5f45"
 d="M49.206238,1.4726562 C49.206238,1.4726562 49.206238,49.39453 49.206238,49.39453 C49.206238,49.39453 1.255249,49.39453 1.255249,49.39453 C1.255249,49.39453 1.255249,1.4726562 1.255249,1.4726562 C1.255249,1.4726562 49.206238,1.4726562 49.206238,1.4726562 ZM3.2434692,3.459961 C3.2434692,3.459961 3.2434692,12.458984 3.2434692,12.458984 C3.2434692,12.458984 47.21808,12.458984 47.21808,12.458984 C47.21808,12.458984 47.21808,3.459961 47.21808,3.459961 C47.21808,3.459961 3.2434692,3.459961 3.2434692,3.459961 ZM47.21808,47.407227 C47.21808,47.407227 47.21808,14.446289 47.21808,14.446289 C47.21808,14.446289 3.2434692,14.446289 3.2434692,14.446289 C3.2434692,14.446289 3.2434692,47.407227 3.2434692,47.407227 C3.2434692,47.407227 47.21808,47.407227 47.21808,47.407227 ZM16.22528,9.537109 C16.22528,9.537109 19.266113,9.537109 19.266113,9.537109 C19.266113,9.537109 19.266113,6.498047 19.266113,6.498047 C19.266113,6.498047 16.22528,6.498047 16.22528,6.498047 C16.22528,6.498047 16.22528,9.537109 16.22528,9.537109 ZM31.195435,9.537109 C31.195435,9.537109 34.236206,9.537109 34.236206,9.537109 C34.236206,9.537109 34.236206,6.498047 34.236206,6.498047 C34.236206,6.498047 31.195435,6.498047 31.195435,6.498047 C31.195435,6.498047 31.195435,9.537109 31.195435,9.537109 ZM18.44751,21.225586 C18.44751,21.225586 20.201782,21.225586 20.201782,21.225586 C20.201782,21.225586 20.201782,36.887695 20.201782,36.887695 C20.201782,36.887695 18.096619,36.887695 18.096619,36.887695 C18.096619,36.887695 18.096619,25.78418 18.096619,25.78418 C18.096619,25.78418 14.237122,25.78418 14.237122,25.78418 C14.237122,25.78418 14.237122,24.14746 14.237122,24.14746 C14.237122,24.14746 14.588013,24.14746 14.588013,24.14746 C15.600342,24.07129 16.283752,24.012695 16.634644,23.972656 C16.985535,23.93457 17.354736,23.720703 17.745728,23.330078 C18.134949,22.94043 18.368896,22.355469 18.44751,21.576172 C18.44751,21.576172 18.44751,21.225586 18.44751,21.225586 ZM34.06079,27.770508 C35.03479,28.785156 35.522644,30.108398 35.522644,31.745117 C35.522644,33.304688 34.97632,34.6084 33.885376,35.660156 C32.79254,36.71289 31.506104,37.23828 30.025818,37.23828 C28.465332,37.23828 27.198914,36.770508 26.224915,35.835938 C25.249084,34.90039 24.76294,33.69336 24.76294,32.21289 C24.76294,32.21289 24.76294,31.862305 24.76294,31.862305 C24.76294,31.862305 26.868164,31.862305 26.868164,31.862305 C26.868164,31.862305 26.868164,32.21289 26.868164,32.21289 C26.868164,33.14746 27.178772,33.907227 27.80371,34.49121 C28.42688,35.07617 29.207275,35.368164 30.142822,35.368164 C31.155273,35.368164 31.955688,34.999023 32.540466,34.257812 C33.125122,33.518555 33.41754,32.6416 33.41754,31.62793 C33.41754,30.61621 33.105103,29.77832 32.481995,29.115234 C31.856873,28.454102 31.03833,28.12207 30.025818,28.12207 C28.699219,28.12207 27.686768,28.667969 26.985168,29.757812 C26.985168,29.757812 26.868164,29.875 26.868164,29.875 C26.868164,29.875 25.11383,29.875 25.11383,29.875 C25.11383,29.875 26.75122,21.458984 26.75122,21.458984 C26.75122,21.458984 34.821045,21.458984 34.821045,21.458984 C34.821045,21.458984 34.821045,23.44629 34.821045,23.44629 C34.821045,23.44629 28.271606,23.44629 28.271606,23.44629 C28.271606,23.44629 27.569824,27.070312 27.569824,27.070312 C28.348389,26.52539 29.207275,26.250977 30.142822,26.250977 C31.780212,26.250977 33.08496,26.75879 34.06079,27.770508 Z"/>
</svg>