<svg xmlns="http://www.w3.org/2000/svg"
 xmlns:xlink="http://www.w3.org/1999/xlink"
 width="38px" height="58px"  viewBox="0 0 38 58">
<path fill-rule="evenodd"  fill="#38c695"
 d="M34.131836,29.842773 C35.926636,32.6875 36.825073,35.823242 36.825073,39.251953 C36.825073,44.083984 35.086914,48.2334 31.61438,51.69922 C28.140015,55.16797 23.983154,56.901367 19.14392,56.901367 C14.302856,56.901367 10.145996,55.16797 6.67334,51.69922 C3.1989746,48.2334 1.4627686,44.083984 1.4627686,39.251953 C1.4627686,35.823242 2.359253,32.6875 4.155884,29.842773 C5.9506836,26.999023 8.331055,24.875 11.298584,23.47168 C8.02002,15.602539 6.380615,10.96582 6.380615,9.563477 C6.380615,9.563477 6.380615,1.9658203 6.380615,1.9658203 C6.380615,1.9658203 31.907104,1.9658203 31.907104,1.9658203 C31.907104,1.9658203 31.907104,9.563477 31.907104,9.563477 C31.907104,10.655273 30.267822,15.290039 26.989136,23.47168 C29.954956,24.875 32.335327,26.999023 34.131836,29.842773 ZM13.055054,22.654297 C15.083984,21.953125 17.113037,21.60254 19.14392,21.60254 C21.251587,21.60254 23.242188,21.953125 25.115723,22.654297 C28.315674,15.173828 29.916626,10.810547 29.916626,9.563477 C29.916626,9.563477 29.916626,3.953125 29.916626,3.953125 C29.916626,3.953125 20.080566,3.953125 20.080566,3.953125 C20.080566,3.953125 20.080566,17.394531 20.080566,17.394531 C20.080566,17.394531 18.089966,17.394531 18.089966,17.394531 C18.089966,17.394531 18.089966,3.953125 18.089966,3.953125 C18.089966,3.953125 8.371216,3.953125 8.371216,3.953125 C8.371216,3.953125 8.371216,9.563477 8.371216,9.563477 C8.371216,10.577148 9.931885,14.939453 13.055054,22.654297 C13.055054,22.654297 13.055054,22.654297 13.055054,22.654297 ZM34.834473,39.251953 C34.834473,34.887695 33.292114,31.186523 30.209229,28.14746 C27.124512,25.109375 23.436157,23.588867 19.14392,23.588867 C14.8498535,23.588867 11.161377,25.109375 8.078491,28.14746 C4.9938965,31.186523 3.4533691,34.887695 3.4533691,39.251953 C3.4533691,43.61621 4.9938965,47.316406 8.078491,50.35547 C11.161377,53.39453 14.8498535,54.914062 19.14392,54.914062 C23.436157,54.914062 27.124512,53.39453 30.209229,50.35547 C33.292114,47.316406 34.834473,43.61621 34.834473,39.251953 ZM30.970337,39.251953 C30.970337,42.524414 29.817749,45.311523 27.516113,47.6084 C25.212646,49.908203 22.422485,51.05664 19.14392,51.05664 C15.865234,51.05664 13.073242,49.908203 10.771606,47.6084 C8.468262,45.311523 7.317505,42.524414 7.317505,39.251953 C7.317505,35.978516 8.468262,33.19336 10.771606,30.894531 C13.073242,28.597656 15.865234,27.44629 19.14392,27.44629 C22.422485,27.44629 25.212646,28.597656 27.516113,30.894531 C29.817749,33.19336 30.970337,35.978516 30.970337,39.251953 ZM28.979736,39.251953 C28.979736,36.603516 28.02295,34.30371 26.110962,32.35547 C24.197266,30.408203 21.875488,29.432617 19.14392,29.432617 C16.410522,29.432617 14.088745,30.408203 12.17688,32.35547 C10.263062,34.30371 9.308105,36.603516 9.308105,39.251953 C9.308105,41.901367 10.263062,44.20117 12.17688,46.14746 C14.088745,48.09668 16.410522,49.069336 19.14392,49.069336 C21.875488,49.069336 24.197266,48.09668 26.110962,46.14746 C28.02295,44.20117 28.979736,41.901367 28.979736,39.251953 Z"/>
</svg>