<svg xmlns="http://www.w3.org/2000/svg"
 xmlns:xlink="http://www.w3.org/1999/xlink"
 width="38px" height="38px"  viewBox="0 0 38 38">
<path fill-rule="evenodd"  fill="#fc5f45"
 d="M36.96875,6.9682617 C36.96875,8.479492 36.44751,9.754883 35.406128,10.796387 C34.36377,11.839355 33.113647,12.359375 31.656128,12.359375 C29.625,12.359375 28.088135,11.474121 27.046875,9.702148 C27.046875,9.702148 11.499878,16.265625 11.499878,16.265625 C11.60376,16.786133 11.65625,17.254883 11.65625,17.671387 C11.65625,18.558105 11.44751,19.41748 11.031128,20.25 C11.031128,20.25 21.03125,27.437012 21.03125,27.437012 C22.125,26.239746 23.453003,25.640137 25.015625,25.640137 C26.473145,25.640137 27.723022,26.174805 28.765625,27.2417 C29.806763,28.310059 30.328125,29.573242 30.328125,31.030762 C30.328125,32.489258 29.806763,33.739746 28.765625,34.78076 C27.723022,35.823242 26.473145,36.342773 25.015625,36.342773 C23.556885,36.342773 22.306763,35.823242 21.265625,34.78076 C20.223022,33.739746 19.703003,32.489258 19.703003,31.030762 C19.703003,30.04248 19.88501,29.208008 20.25,28.53125 C20.25,28.53125 10.25,21.264648 10.25,21.264648 C9.207397,22.411621 7.90625,22.983887 6.343628,22.983887 C4.88501,22.983887 3.6350098,22.476562 2.593628,21.46045 C1.5512695,20.444824 1.03125,19.183105 1.03125,17.671387 C1.03125,16.161621 1.5512695,14.8984375 2.593628,13.882324 C3.6350098,12.866699 4.88501,12.359375 6.343628,12.359375 C8.42627,12.359375 9.963135,13.245117 10.953125,15.015137 C10.953125,15.015137 26.578125,8.453125 26.578125,8.453125 C26.421875,7.9838867 26.34375,7.489746 26.34375,6.9682617 C26.34375,5.510742 26.86377,4.260254 27.906128,3.2182617 C28.94751,2.1767578 30.19751,1.6552734 31.656128,1.6552734 C33.113647,1.6552734 34.36377,2.1767578 35.406128,3.2182617 C36.44751,4.260254 36.96875,5.510742 36.96875,6.9682617 C36.96875,6.9682617 36.96875,6.9682617 36.96875,6.9682617 ZM21.03125,31.030762 C21.03125,32.125 21.421875,33.06201 22.203125,33.84326 C22.984253,34.62451 23.921753,35.015137 25.015625,35.015137 C26.109375,35.015137 27.046875,34.62451 27.828125,33.84326 C28.609253,33.06201 29.0,32.125 29.0,31.030762 C29.0,29.885742 28.609253,28.920898 27.828125,28.140625 C27.046875,27.358887 26.109375,26.968262 25.015625,26.968262 C23.921753,26.968262 22.984253,27.358887 22.203125,28.140625 C21.421875,28.920898 21.03125,29.885742 21.03125,31.030762 C21.03125,31.030762 21.03125,31.030762 21.03125,31.030762 ZM10.328003,17.671387 C10.328003,16.578125 9.9375,15.640137 9.156128,14.858887 C8.375,14.077637 7.4375,13.687012 6.343628,13.687012 C5.25,13.687012 4.3125,14.077637 3.531128,14.858887 C2.75,15.640137 2.359253,16.578125 2.359253,17.671387 C2.359253,18.765137 2.75,19.702637 3.531128,20.484375 C4.3125,21.264648 5.25,21.655762 6.343628,21.655762 C7.4375,21.655762 8.375,21.264648 9.156128,20.484375 C9.9375,19.702637 10.328003,18.765137 10.328003,17.671387 ZM35.640503,6.9682617 C35.640503,5.8740234 35.25,4.9375 34.468628,4.1557617 C33.6875,3.3745117 32.75,2.9838867 31.656128,2.9838867 C30.5625,2.9838867 29.625,3.3745117 28.843628,4.1557617 C28.0625,4.9375 27.671753,5.8740234 27.671753,6.9682617 C27.671753,8.114746 28.0625,9.078125 28.843628,9.858887 C29.625,10.640137 30.5625,11.030762 31.656128,11.030762 C32.75,11.030762 33.6875,10.640137 34.468628,9.858887 C35.25,9.078125 35.640503,8.114746 35.640503,6.9682617 C35.640503,6.9682617 35.640503,6.9682617 35.640503,6.9682617 Z"/>
</svg>