<svg xmlns="http://www.w3.org/2000/svg"
 xmlns:xlink="http://www.w3.org/1999/xlink"
 width="18px" height="18px"  viewBox="0 0 18 18">
<path fill-rule="evenodd"  fill="#616161"
 d="M16.179688,2.8203125 C16.726196,3.3671875 17.0,4.03125 17.0,4.8125 C17.0,4.8125 17.0,14.187012 17.0,14.187012 C17.0,14.968262 16.726196,15.6328125 16.179688,16.1792 C15.63269,16.726074 14.968384,16.999512 14.1875,16.999512 C14.1875,16.999512 4.8125,16.999512 4.8125,16.999512 C4.031128,16.999512 3.3668213,16.726074 2.8203125,16.1792 C2.2733154,15.6328125 2.0,14.968262 2.0,14.187012 C2.0,14.187012 2.0,4.8125 2.0,4.8125 C2.0,4.03125 2.2733154,3.3671875 2.8203125,2.8203125 C3.3668213,2.2734375 4.031128,1.9995117 4.8125,1.9995117 C4.8125,1.9995117 14.1875,1.9995117 14.1875,1.9995117 C14.968384,1.9995117 15.63269,2.2734375 16.179688,2.8203125 ZM11.609375,7.9472656 C11.609375,7.9472656 10.203125,7.9472656 10.203125,7.9472656 C10.203125,7.9472656 10.203125,7.185547 10.203125,7.185547 C10.203125,6.951172 10.236938,6.7851562 10.305664,6.6870117 C10.373901,6.5898438 10.544556,6.5405273 10.818359,6.5405273 C10.818359,6.5405273 11.580078,6.5405273 11.580078,6.5405273 C11.580078,6.5405273 11.580078,4.987793 11.580078,4.987793 C11.580078,4.987793 10.349609,4.987793 10.349609,4.987793 C9.646484,4.987793 9.167603,5.1586914 8.9140625,5.5009766 C8.660034,5.842285 8.533203,6.3554688 8.533203,7.038086 C8.533203,7.038086 8.533203,7.9472656 8.533203,7.9472656 C8.533203,7.9472656 7.390625,7.9472656 7.390625,7.9472656 C7.390625,7.9472656 7.390625,9.499512 7.390625,9.499512 C7.390625,9.499512 8.533203,9.499512 8.533203,9.499512 C8.533203,9.499512 8.533203,14.010742 8.533203,14.010742 C8.533203,14.010742 10.203125,14.010742 10.203125,14.010742 C10.203125,14.010742 10.203125,9.499512 10.203125,9.499512 C10.203125,9.499512 11.433594,9.499512 11.433594,9.499512 C11.433594,9.499512 11.609375,7.9472656 11.609375,7.9472656 Z"/>
</svg>