<svg xmlns="http://www.w3.org/2000/svg"
 xmlns:xlink="http://www.w3.org/1999/xlink"
 width="18px" height="18px"  viewBox="0 0 18 18">
<path fill-rule="evenodd"  fill="#616161"
 d="M16.179688,2.8203125 C16.726196,3.3671875 17.0,4.03125 17.0,4.8115234 C17.0,4.8115234 17.0,14.187012 17.0,14.187012 C17.0,14.968262 16.726196,15.633301 16.179688,16.1792 C15.63269,16.726074 14.968384,16.999512 14.1875,16.999512 C14.1875,16.999512 4.8125,16.999512 4.8125,16.999512 C4.031128,16.999512 3.3668213,16.726074 2.8203125,16.1792 C2.2733154,15.633301 2.0,14.968262 2.0,14.187012 C2.0,14.187012 2.0,4.8115234 2.0,4.8115234 C2.0,4.03125 2.2733154,3.3671875 2.8203125,2.8203125 C3.3668213,2.2734375 4.031128,1.9995117 4.8125,1.9995117 C4.8125,1.9995117 14.1875,1.9995117 14.1875,1.9995117 C14.968384,1.9995117 15.63269,2.2734375 16.179688,2.8203125 ZM14.158203,6.8632812 C13.884399,6.9799805 13.532837,7.0776367 13.103516,7.1557617 C13.513672,6.902832 13.777344,6.560547 13.894531,6.130371 C13.542969,6.345703 13.151978,6.4921875 12.722656,6.5703125 C12.371094,6.1796875 11.921509,5.9838867 11.375,5.9838867 C10.866821,5.9838867 10.432495,6.169922 10.071289,6.5405273 C9.709595,6.911621 9.529297,7.341797 9.529297,7.82959 C9.529297,7.927246 9.548462,8.07373 9.587891,8.269043 C8.025024,8.171875 6.7557373,7.5268555 5.779297,6.3359375 C5.6035156,6.6484375 5.515625,6.9609375 5.515625,7.272949 C5.515625,7.9174805 5.798462,8.425781 6.3652344,8.795898 C6.0526123,8.795898 5.769165,8.71875 5.515625,8.5625 C5.515625,8.5625 5.515625,8.591309 5.515625,8.591309 C5.515625,9.021484 5.6571045,9.407227 5.9404297,9.748535 C6.2232666,10.09082 6.579956,10.310547 7.0097656,10.407227 C6.7753906,10.446777 6.609253,10.466797 6.5117188,10.466797 C6.3551025,10.466797 6.237915,10.457031 6.1601562,10.437012 C6.4334717,11.257324 7.0097656,11.6875 7.888672,11.726074 C7.204712,12.253418 6.442993,12.51709 5.6035156,12.51709 C5.544922,12.51709 5.466675,12.512207 5.3691406,12.502441 C5.271118,12.492676 5.203003,12.487793 5.1640625,12.487793 C6.0233154,13.034668 6.9608154,13.308594 7.9765625,13.308594 C9.577759,13.308594 10.8573,12.766602 11.814453,11.682617 C12.771118,10.598145 13.25,9.392578 13.25,8.063965 C13.25,8.025391 13.244995,7.980957 13.235352,7.932617 C13.22522,7.883789 13.220703,7.849121 13.220703,7.82959 C13.572266,7.595215 13.884399,7.272949 14.158203,6.8632812 C14.158203,6.8632812 14.158203,6.8632812 14.158203,6.8632812 Z"/>
</svg>