<svg xmlns="http://www.w3.org/2000/svg"
 xmlns:xlink="http://www.w3.org/1999/xlink"
 width="18px" height="18px"  viewBox="0 0 18 18">
<path fill-rule="evenodd"  fill="#616161"
 d="M16.179688,2.8203125 C16.726196,3.3671875 17.0,4.0307617 17.0,4.8125 C17.0,4.8125 17.0,14.187012 17.0,14.187012 C17.0,14.968262 16.726196,15.6328125 16.179688,16.1792 C15.63269,16.726074 14.968384,17.0 14.1875,17.0 C14.1875,17.0 4.8125,17.0 4.8125,17.0 C4.031128,17.0 3.3668213,16.726074 2.8203125,16.1792 C2.2733154,15.6328125 2.0,14.968262 2.0,14.187012 C2.0,14.187012 2.0,4.8125 2.0,4.8125 C2.0,4.0307617 2.2733154,3.3671875 2.8203125,2.8203125 C3.3668213,2.2729492 4.031128,1.9990234 4.8125,1.9990234 C4.8125,1.9990234 14.1875,1.9990234 14.1875,1.9990234 C14.968384,1.9990234 15.63269,2.2729492 16.179688,2.8203125 ZM7.625,6.5703125 C7.625,6.5703125 5.75,6.5703125 5.75,6.5703125 C5.75,6.5703125 5.75,13.132324 5.75,13.132324 C5.75,13.132324 7.625,13.132324 7.625,13.132324 C7.625,13.132324 7.625,6.5703125 7.625,6.5703125 ZM7.625,5.28125 C7.625,5.046875 7.541626,4.8413086 7.3759766,4.6660156 C7.209839,4.489746 6.999634,4.4018555 6.7460938,4.4018555 C6.4920654,4.4018555 6.2818604,4.489746 6.116211,4.6660156 C5.9500732,4.8413086 5.8671875,5.046875 5.8671875,5.28125 C5.8671875,5.534668 5.9500732,5.745117 6.116211,5.9106445 C6.2818604,6.07666 6.4920654,6.159668 6.7460938,6.159668 C6.999634,6.159668 7.209839,6.07666 7.3759766,5.9106445 C7.541626,5.745117 7.625,5.534668 7.625,5.28125 C7.625,5.28125 7.625,5.28125 7.625,5.28125 ZM14.1875,9.118164 C14.1875,8.61084 14.118774,8.171387 13.982422,7.8007812 C13.845581,7.4296875 13.674805,7.1655273 13.469727,7.0092773 C13.264648,6.8530273 13.069214,6.741211 12.883789,6.671875 C12.697876,6.604004 12.507446,6.5703125 12.3125,6.5703125 C11.589722,6.5703125 10.964844,6.7749023 10.4375,7.185547 C10.4375,7.185547 10.4375,6.5703125 10.4375,6.5703125 C10.4375,6.5703125 8.5625,6.5703125 8.5625,6.5703125 C8.5625,6.5703125 8.5625,13.132324 8.5625,13.132324 C8.5625,13.132324 10.4375,13.132324 10.4375,13.132324 C10.4375,13.132324 10.4375,9.089355 10.4375,9.089355 C10.4375,9.089355 10.496094,8.884766 10.496094,8.884766 C10.5546875,8.748047 10.676392,8.61084 10.862305,8.474121 C11.0477295,8.337891 11.287109,8.269531 11.580078,8.269531 C12.067993,8.269531 12.3125,8.54248 12.3125,9.089355 C12.3125,9.089355 12.3125,13.132324 12.3125,13.132324 C12.3125,13.132324 14.1875,13.132324 14.1875,13.132324 C14.1875,13.132324 14.1875,9.118164 14.1875,9.118164 Z"/>
</svg>