<svg xmlns="http://www.w3.org/2000/svg"
 xmlns:xlink="http://www.w3.org/1999/xlink"
 width="18px" height="18px"  viewBox="0 0 18 18">
<path fill-rule="evenodd"  fill="#616161"
 d="M16.179688,2.8203125 C16.726196,3.3671875 17.0,4.0307617 17.0,4.8125 C17.0,4.8125 17.0,14.187012 17.0,14.187012 C17.0,14.968262 16.726196,15.6328125 16.179688,16.1792 C15.63269,16.726074 14.968384,16.999023 14.1875,16.999023 C14.1875,16.999023 4.8125,16.999023 4.8125,16.999023 C4.031128,16.999023 3.3668213,16.726074 2.8203125,16.1792 C2.2733154,15.6328125 2.0,14.968262 2.0,14.187012 C2.0,14.187012 2.0,4.8125 2.0,4.8125 C2.0,4.0307617 2.2733154,3.3671875 2.8203125,2.8203125 C3.3668213,2.2729492 4.031128,1.9995117 4.8125,1.9995117 C4.8125,1.9995117 14.1875,1.9995117 14.1875,1.9995117 C14.968384,1.9995117 15.63269,2.2729492 16.179688,2.8203125 ZM14.1875,5.163574 C14.1875,4.929199 14.0703125,4.8125 13.8359375,4.8125 C13.8359375,4.8125 5.1640625,4.8125 5.1640625,4.8125 C4.9296875,4.8125 4.8125,4.929199 4.8125,5.163574 C4.8125,5.163574 4.8125,13.835449 4.8125,13.835449 C4.8125,14.0703125 4.9296875,14.187012 5.1640625,14.187012 C5.1640625,14.187012 13.8359375,14.187012 13.8359375,14.187012 C14.0703125,14.187012 14.1875,14.0703125 14.1875,13.835449 C14.1875,13.835449 14.1875,5.163574 14.1875,5.163574 ZM11.375,7.6245117 C11.375,7.6245117 13.25,7.6245117 13.25,7.6245117 C13.25,7.6245117 13.25,5.7490234 13.25,5.7490234 C13.25,5.7490234 11.375,5.7490234 11.375,5.7490234 C11.375,5.7490234 11.375,7.6245117 11.375,7.6245117 ZM9.5,7.6245117 C10.00769,7.6245117 10.447144,7.810547 10.818359,8.181641 C11.189087,8.552246 11.375,8.991699 11.375,9.499023 C11.375,10.007324 11.189087,10.446777 10.818359,10.817871 C10.447144,11.189453 10.00769,11.374512 9.5,11.374512 C8.991821,11.374512 8.552368,11.189453 8.181641,10.817871 C7.810425,10.446777 7.625,10.007324 7.625,9.499023 C7.625,8.991699 7.810425,8.552246 8.181641,8.181641 C8.552368,7.810547 8.991821,7.6245117 9.5,7.6245117 ZM12.224609,9.03125 C12.224609,9.03125 13.25,9.03125 13.25,9.03125 C13.25,9.03125 13.25,13.249023 13.25,13.249023 C13.25,13.249023 5.75,13.249023 5.75,13.249023 C5.75,13.249023 5.75,9.03125 5.75,9.03125 C5.75,9.03125 6.7753906,9.03125 6.7753906,9.03125 C6.735962,9.264648 6.716797,9.421875 6.716797,9.499023 C6.716797,10.280762 6.9901123,10.94043 7.5371094,11.477539 C8.083618,12.014648 8.738281,12.282715 9.5,12.282715 C10.261719,12.282715 10.915894,12.014648 11.462891,11.477539 C12.009399,10.94043 12.283203,10.280762 12.283203,9.499023 C12.283203,9.421875 12.26355,9.264648 12.224609,9.03125 C12.224609,9.03125 12.224609,9.03125 12.224609,9.03125 Z"/>
</svg>