<svg xmlns="http://www.w3.org/2000/svg"
 xmlns:xlink="http://www.w3.org/1999/xlink"
 width="58px" height="52px"  viewBox="0 0 58 52">
<path fill-rule="evenodd"  fill="#38c695"
 d="M38.093628,8.206787 C38.093628,8.206787 57.0,1.0070801 57.0,1.0070801 C57.0,1.0070801 57.0,42.485596 57.0,42.485596 C57.0,42.485596 38.093628,49.685303 38.093628,49.685303 C38.093628,49.685303 20.90625,42.808105 20.90625,42.808105 C20.90625,42.808105 1.9998779,50.007812 1.9998779,50.007812 C1.9998779,50.007812 1.9998779,8.529297 1.9998779,8.529297 C1.9998779,8.529297 20.90625,1.3295898 20.90625,1.3295898 C20.90625,1.3295898 38.093628,8.206787 38.093628,8.206787 ZM21.765564,41.30371 C21.765564,41.30371 37.234314,47.428223 37.234314,47.428223 C37.234314,47.428223 37.234314,9.711426 37.234314,9.711426 C37.234314,9.711426 21.765564,3.58667 21.765564,3.58667 C21.765564,3.58667 21.765564,41.30371 21.765564,41.30371 ZM3.718689,47.428223 C3.718689,47.428223 20.046753,41.1958 20.046753,41.1958 C20.046753,41.1958 20.046753,3.58667 20.046753,3.58667 C20.046753,3.58667 3.718689,9.819092 3.718689,9.819092 C3.718689,9.819092 3.718689,47.428223 3.718689,47.428223 ZM55.28119,3.58667 C55.28119,3.58667 38.953125,9.819092 38.953125,9.819092 C38.953125,9.819092 38.953125,47.428223 38.953125,47.428223 C38.953125,47.428223 55.28119,41.1958 55.28119,41.1958 C55.28119,41.1958 55.28119,3.58667 55.28119,3.58667 Z"/>
</svg>