<svg xmlns="http://www.w3.org/2000/svg"
 xmlns:xlink="http://www.w3.org/1999/xlink"
 width="58px" height="45px"  viewBox="0 0 58 45">
<path fill-rule="evenodd"  fill="#b27cf5"
 d="M48.406128,43.99878 C48.406128,43.99878 1.9998779,43.99878 1.9998779,43.99878 C1.9998779,43.99878 1.9998779,7.8933105 1.9998779,7.8933105 C1.9998779,7.8933105 48.406128,7.8933105 48.406128,7.8933105 C48.406128,7.8933105 48.406128,43.99878 48.406128,43.99878 ZM3.71875,9.612549 C3.71875,9.612549 3.71875,32.50049 3.71875,32.50049 C3.71875,32.50049 14.890503,21.217773 14.890503,21.217773 C14.890503,21.217773 27.136597,35.18701 27.136597,35.18701 C27.136597,35.18701 35.623047,30.029541 35.623047,30.029541 C35.623047,30.029541 46.6875,39.59253 46.6875,39.59253 C46.6875,39.59253 46.6875,9.612549 46.6875,9.612549 C46.6875,9.612549 3.71875,9.612549 3.71875,9.612549 ZM46.6875,42.279053 C46.6875,42.279053 46.6875,41.84961 46.6875,41.84961 C46.6875,41.84961 35.408203,32.178223 35.408203,32.178223 C35.408203,32.178223 26.707031,37.33618 26.707031,37.33618 C26.707031,37.33618 14.890503,23.79712 14.890503,23.79712 C14.890503,23.79712 3.71875,34.864502 3.71875,34.864502 C3.71875,34.864502 3.71875,42.279053 3.71875,42.279053 C3.71875,42.279053 46.6875,42.279053 46.6875,42.279053 ZM9.734253,1.0161133 C9.734253,1.0161133 57.0,1.0161133 57.0,1.0161133 C57.0,1.0161133 57.0,37.121582 57.0,37.121582 C57.0,37.121582 49.265625,37.121582 49.265625,37.121582 C49.265625,37.121582 49.265625,35.402588 49.265625,35.402588 C49.265625,35.402588 55.28125,35.402588 55.28125,35.402588 C55.28125,35.402588 55.28125,2.7351074 55.28125,2.7351074 C55.28125,2.7351074 11.453125,2.7351074 11.453125,2.7351074 C11.453125,2.7351074 11.453125,7.0336914 11.453125,7.0336914 C11.453125,7.0336914 9.734253,7.0336914 9.734253,7.0336914 C9.734253,7.0336914 9.734253,1.0161133 9.734253,1.0161133 ZM31.21875,19.92871 C31.21875,18.49585 31.718872,17.279297 32.722656,16.275146 C33.72461,15.272461 34.94153,14.770508 36.375,14.770508 C37.80664,14.770508 39.02356,15.272461 40.02722,16.275146 C41.029297,17.279297 41.53125,18.49585 41.53125,19.92871 C41.53125,21.362549 41.029297,22.579834 40.02722,23.581787 C39.02356,24.585938 37.80664,25.086182 36.375,25.086182 C34.94153,25.086182 33.72461,24.585938 32.722656,23.581787 C31.718872,22.579834 31.21875,21.362549 31.21875,19.92871 ZM32.937378,19.92871 C32.937378,20.932373 33.259644,21.754883 33.904175,22.399658 C34.548706,23.044678 35.371216,23.366943 36.375,23.366943 C37.377075,23.366943 38.20117,23.044678 38.845703,22.399658 C39.490234,21.754883 39.8125,20.932373 39.8125,19.92871 C39.8125,18.926025 39.490234,18.101807 38.845703,17.457031 C38.20117,16.812256 37.377075,16.489746 36.375,16.489746 C35.371216,16.489746 34.548706,16.812256 33.904175,17.457031 C33.259644,18.101807 32.937378,18.926025 32.937378,19.92871 Z"/>
</svg>