<svg xmlns="http://www.w3.org/2000/svg"
 xmlns:xlink="http://www.w3.org/1999/xlink"
 width="47px" height="43px"  viewBox="0 0 47 43">
<path fill-rule="evenodd"  fill="#feb960"
 d="M29.24585,41.01587 C29.24585,41.01587 1.7545166,41.01587 1.7545166,41.01587 C1.7545166,41.01587 1.7545166,1.0163574 1.7545166,1.0163574 C1.7545166,1.0163574 29.24585,1.0163574 29.24585,1.0163574 C29.24585,1.0163574 29.24585,41.01587 29.24585,41.01587 ZM3.0041504,2.2658691 C3.0041504,2.2658691 3.0041504,6.015869 3.0041504,6.015869 C3.0041504,6.015869 27.996216,6.015869 27.996216,6.015869 C27.996216,6.015869 27.996216,2.2658691 27.996216,2.2658691 C27.996216,2.2658691 3.0041504,2.2658691 3.0041504,2.2658691 ZM3.0041504,7.2661133 C3.0041504,7.2661133 3.0041504,32.2666 3.0041504,32.2666 C3.0041504,32.2666 27.996216,32.2666 27.996216,32.2666 C27.996216,32.2666 27.996216,7.2661133 27.996216,7.2661133 C27.996216,7.2661133 3.0041504,7.2661133 3.0041504,7.2661133 ZM27.996216,39.7666 C27.996216,39.7666 27.996216,33.516113 27.996216,33.516113 C27.996216,33.516113 3.0041504,33.516113 3.0041504,33.516113 C3.0041504,33.516113 3.0041504,39.7666 3.0041504,39.7666 C3.0041504,39.7666 27.996216,39.7666 27.996216,39.7666 ZM13.0008545,4.7663574 C13.0008545,4.7663574 17.99939,4.7663574 17.99939,4.7663574 C17.99939,4.7663574 17.99939,3.5161133 17.99939,3.5161133 C17.99939,3.5161133 13.0008545,3.5161133 13.0008545,3.5161133 C13.0008545,3.5161133 13.0008545,4.7663574 13.0008545,4.7663574 ZM17.374634,36.64087 C17.374634,37.162354 17.191528,37.605713 16.827759,37.96924 C16.463013,38.334473 16.02002,38.516357 15.500244,38.516357 C14.979126,38.516357 14.536133,38.334473 14.172485,37.96924 C13.807617,37.605713 13.625732,37.162354 13.625732,36.64087 C13.625732,36.121094 13.807617,35.677734 14.172485,35.313232 C14.536133,34.948975 14.979126,34.766357 15.500244,34.766357 C16.02002,34.766357 16.463013,34.948975 16.827759,35.313232 C17.191528,35.677734 17.374634,36.121094 17.374634,36.64087 ZM15.500244,36.0166 C15.082764,36.0166 14.875366,36.22461 14.875366,36.64087 C14.875366,37.058594 15.082764,37.26587 15.500244,37.26587 C15.91626,37.26587 16.124878,37.058594 16.124878,36.64087 C16.124878,36.22461 15.91626,36.0166 15.500244,36.0166 ZM29.533813,11.016113 C29.533813,11.016113 45.466187,11.016113 45.466187,11.016113 C45.466187,11.016113 45.466187,41.01587 45.466187,41.01587 C45.466187,41.01587 29.533813,41.01587 29.533813,41.01587 C29.533813,41.01587 29.533813,11.016113 29.533813,11.016113 ZM44.529053,40.0791 C44.529053,40.0791 44.529053,35.391357 44.529053,35.391357 C44.529053,35.391357 30.470947,35.391357 30.470947,35.391357 C30.470947,35.391357 30.470947,40.0791 30.470947,40.0791 C30.470947,40.0791 44.529053,40.0791 44.529053,40.0791 ZM44.529053,34.453613 C44.529053,34.453613 44.529053,15.703857 44.529053,15.703857 C44.529053,15.703857 30.470947,15.703857 30.470947,15.703857 C30.470947,15.703857 30.470947,34.453613 30.470947,34.453613 C30.470947,34.453613 44.529053,34.453613 44.529053,34.453613 ZM30.470947,11.953857 C30.470947,11.953857 30.470947,14.766113 30.470947,14.766113 C30.470947,14.766113 44.529053,14.766113 44.529053,14.766113 C44.529053,14.766113 44.529053,11.953857 44.529053,11.953857 C44.529053,11.953857 30.470947,11.953857 30.470947,11.953857 ZM35.62561,13.828369 C35.62561,13.828369 39.37439,13.828369 39.37439,13.828369 C39.37439,13.828369 39.37439,12.891602 39.37439,12.891602 C39.37439,12.891602 35.62561,12.891602 35.62561,12.891602 C35.62561,12.891602 35.62561,13.828369 35.62561,13.828369 ZM38.905884,37.734863 C38.905884,38.12549 38.768555,38.457764 38.49585,38.730957 C38.222168,39.004883 37.890015,39.141357 37.500122,39.141357 C37.109253,39.141357 36.7771,39.004883 36.50415,38.730957 C36.23059,38.457764 36.09424,38.12549 36.09424,37.734863 C36.09424,37.34497 36.23059,37.012695 36.50415,36.73877 C36.7771,36.465576 37.109253,36.32837 37.500122,36.32837 C37.890015,36.32837 38.222168,36.465576 38.49585,36.73877 C38.768555,37.012695 38.905884,37.34497 38.905884,37.734863 ZM37.500122,37.26587 C37.187134,37.26587 37.031494,37.423096 37.031494,37.734863 C37.031494,38.048096 37.187134,38.203613 37.500122,38.203613 C37.812134,38.203613 37.968628,38.048096 37.968628,37.734863 C37.968628,37.423096 37.812134,37.26587 37.500122,37.26587 Z"/>
</svg>