<svg xmlns="http://www.w3.org/2000/svg"
 xmlns:xlink="http://www.w3.org/1999/xlink"
 width="42px" height="43px"  viewBox="0 0 42 43">
<path fill-rule="evenodd"  fill="#b27cf5"
 d="M2.6482544,21.99945 C2.6482544,27.104187 4.4242554,31.440613 7.977661,35.007202 C11.529663,38.57538 15.847656,40.358643 20.931458,40.358643 C26.0141,40.358643 30.33197,38.57538 33.885376,35.007202 C37.4375,31.440613 39.214783,27.104187 39.214783,21.99945 C39.214783,16.895569 37.4375,12.559937 33.885376,8.99176 C30.33197,5.425171 26.0141,3.6402588 20.931458,3.6402588 C15.847656,3.6402588 11.529663,5.425171 7.977661,8.99176 C4.4242554,12.559937 2.6482544,16.895569 2.6482544,21.99945 ZM40.84851,21.99945 C40.84851,27.52118 38.903503,32.23358 35.013428,36.13983 C31.123413,40.04608 26.428589,41.999634 20.931458,41.999634 C15.433105,41.999634 10.739563,40.04608 6.8494873,36.13983 C2.9594116,32.23358 1.0144043,27.52118 1.0144043,21.99945 C1.0144043,16.47937 2.9594116,11.765381 6.8494873,7.859131 C10.739563,3.9528198 15.433105,1.9993286 20.931458,1.9993286 C26.428589,1.9993286 31.123413,3.9528198 35.013428,7.859131 C38.903503,11.765381 40.84851,16.47937 40.84851,21.99945 ZM33.224,14.343201 C33.224,14.343201 31.901428,13.014832 31.901428,13.014832 C31.901428,13.014832 20.931458,24.187439 20.931458,24.187439 C20.931458,24.187439 13.306946,16.374878 13.306946,16.374878 C13.306946,16.374878 11.984375,17.702515 11.984375,17.702515 C11.984375,17.702515 20.931458,26.530884 20.931458,26.530884 C20.931458,26.530884 33.224,14.343201 33.224,14.343201 ZM20.931458,5.6711426 C20.567993,5.6711426 20.256836,5.801941 19.997864,6.0618286 C19.737732,6.3234253 19.608887,6.6359863 19.608887,6.9995728 C19.608887,7.364746 19.737732,7.677307 19.997864,7.937256 C20.256836,8.197998 20.567993,8.327942 20.931458,8.327942 C21.293762,8.327942 21.60492,8.197998 21.865051,7.937256 C22.124023,7.677307 22.254028,7.364746 22.254028,6.9995728 C22.254028,6.6359863 22.124023,6.3234253 21.865051,6.0618286 C21.60492,5.801941 21.293762,5.6711426 20.931458,5.6711426 ZM20.931458,35.671814 C20.567993,35.671814 20.256836,35.801758 19.997864,36.0625 C19.737732,36.323242 19.608887,36.635803 19.608887,36.99939 C19.608887,37.364563 19.737732,37.677124 19.997864,37.937073 C20.256836,38.19867 20.567993,38.32776 20.931458,38.32776 C21.293762,38.32776 21.60492,38.19867 21.865051,37.937073 C22.124023,37.677124 22.254028,37.364563 22.254028,36.99939 C22.254028,36.635803 22.124023,36.323242 21.865051,36.0625 C21.60492,35.801758 21.293762,35.671814 20.931458,35.671814 ZM5.9937134,20.671082 C5.630249,20.671082 5.3189697,20.801819 5.0601196,21.061768 C4.799988,21.323303 4.6711426,21.635925 4.6711426,21.99945 C4.6711426,22.364685 4.799988,22.677246 5.0601196,22.937134 C5.3189697,23.197937 5.630249,23.32788 5.9937134,23.32788 C6.355896,23.32788 6.6671753,23.197937 6.927307,22.937134 C7.186157,22.677246 7.316284,22.364685 7.316284,21.99945 C7.316284,21.635925 7.186157,21.323303 6.927307,21.061768 C6.6671753,20.801819 6.355896,20.671082 5.9937134,20.671082 ZM35.869324,20.671082 C35.50586,20.671082 35.19458,20.801819 34.93567,21.061768 C34.675476,21.323303 34.54663,21.635925 34.54663,21.99945 C34.54663,22.364685 34.675476,22.677246 34.93567,22.937134 C35.19458,23.197937 35.50586,23.32788 35.869324,23.32788 C36.231506,23.32788 36.542664,23.197937 36.802917,22.937134 C37.061768,22.677246 37.191895,22.364685 37.191895,21.99945 C37.191895,21.635925 37.061768,21.323303 36.802917,21.061768 C36.542664,20.801819 36.231506,20.671082 35.869324,20.671082 Z"/>
</svg>