<svg xmlns="http://www.w3.org/2000/svg"
 xmlns:xlink="http://www.w3.org/1999/xlink"
 width="43px" height="43px"  viewBox="0 0 43 43">
<path fill-rule="evenodd"  fill="#38c695"
 d="M41.05182,21.99945 C41.05182,27.52118 39.098877,32.23358 35.19287,36.13983 C31.286987,40.04608 26.572937,41.999634 21.053467,41.999634 C15.532593,41.999634 10.819946,40.04608 6.9139404,36.13983 C3.0080566,32.23358 1.0551758,27.52118 1.0551758,21.99945 C1.0551758,16.47937 3.0080566,11.765381 6.9139404,7.859131 C10.819946,3.9528198 15.532593,1.9993286 21.053467,1.9993286 C26.572937,1.9993286 31.286987,3.9528198 35.19287,7.859131 C39.098877,11.765381 41.05182,16.47937 41.05182,21.99945 ZM39.411255,21.99945 C39.411255,16.895569 37.62683,12.559937 34.06012,8.99176 C30.49231,5.425171 26.156738,3.6402588 21.053467,3.6402588 C15.948853,3.6402588 11.613342,5.425171 8.046692,8.99176 C4.478882,12.559937 2.6955566,16.895569 2.6955566,21.99945 C2.6955566,27.104187 4.478882,31.440613 8.046692,35.007202 C11.613342,38.57538 15.948853,40.358643 21.053467,40.358643 C26.156738,40.358643 30.49231,38.57538 34.06012,35.007202 C37.62683,31.440613 39.411255,27.104187 39.411255,21.99945 ZM18.514587,19.499756 C19.68634,20.22937 20.987549,20.815796 22.420471,21.257507 C23.852234,21.700867 25.16681,22.417297 26.365479,23.406006 C27.562866,24.395508 28.187866,25.645813 28.240356,27.156006 C28.240356,28.61438 27.719177,29.85144 26.67804,30.866516 C25.63556,31.882324 24.203796,32.495117 22.38147,32.702393 C22.38147,32.702393 22.38147,35.359253 22.38147,35.359253 C22.38147,35.359253 20.584717,35.359253 20.584717,35.359253 C20.584717,35.359253 20.584717,32.467957 20.584717,32.467957 C17.77246,32.36432 15.66333,31.531128 14.257202,29.968262 C14.257202,29.968262 15.585144,28.483582 15.585144,28.483582 C15.585144,28.483582 16.210083,29.030579 16.210083,29.030579 C16.678833,29.448425 17.394104,29.85144 18.358398,30.242188 C19.321411,30.63208 20.323547,30.82782 21.365906,30.82782 C22.667114,30.82782 23.748535,30.50293 24.60791,29.85144 C25.467102,29.200806 25.89685,28.354431 25.89685,27.312256 C25.89685,26.167297 25.310913,25.202454 24.13916,24.421875 C22.967407,23.640442 21.664917,23.04242 20.233154,22.624573 C18.800232,22.208374 17.499023,21.51825 16.32727,20.55426 C15.155518,19.591064 14.56958,18.405762 14.56958,16.999207 C14.56958,15.646118 15.116394,14.434509 16.210083,13.366882 C17.303833,12.300049 18.683044,11.687256 20.350342,11.530945 C20.350342,11.530945 20.350342,8.640503 20.350342,8.640503 C20.350342,8.640503 22.22522,8.640503 22.22522,8.640503 C22.22522,8.640503 22.22522,11.530945 22.22522,11.530945 C24.568726,11.63623 26.338684,12.286865 27.537231,13.483643 C27.537231,13.483643 26.365479,15.202759 26.365479,15.202759 C26.365479,15.202759 25.74054,14.733948 25.74054,14.733948 C25.32312,14.421387 24.698181,14.108826 23.865723,13.796204 C23.032043,13.483643 22.198364,13.327393 21.365906,13.327393 C20.011047,13.327393 18.905212,13.667114 18.045837,14.343201 C17.186646,15.020996 16.756897,15.854248 16.756897,16.842957 C16.756897,17.885925 17.342834,18.770996 18.514587,19.499756 Z"/>
</svg>