<svg xmlns="http://www.w3.org/2000/svg"
 xmlns:xlink="http://www.w3.org/1999/xlink"
 width="43px" height="43px"  viewBox="0 0 43 43">
<path fill-rule="evenodd"  fill="#feb960"
 d="M41.20569,21.975586 C41.20569,27.4776 39.261475,32.182556 35.375732,36.08966 C31.488525,39.99756 26.808472,41.95111 21.337036,41.95111 C15.864014,41.95111 11.184082,39.99756 7.29834,36.08966 C3.4111328,32.182556 1.4682617,27.4776 1.4682617,21.975586 C1.4682617,16.474426 3.4111328,11.768677 7.29834,7.860779 C11.184082,3.9544678 15.864014,1.9993286 21.337036,1.9993286 C26.808472,1.9993286 31.488525,3.9544678 35.375732,7.860779 C39.261475,11.768677 41.20569,16.474426 41.20569,21.975586 ZM39.619995,21.975586 C39.619995,16.911194 37.831665,12.582153 34.256348,8.985962 C30.679688,5.3914795 26.374146,3.5942383 21.337036,3.5942383 C16.299805,3.5942383 11.99292,5.3914795 8.417725,8.985962 C4.8409424,12.582153 3.0540771,16.911194 3.0540771,21.975586 C3.0540771,27.039185 4.8409424,31.369873 8.417725,34.964417 C11.99292,38.559753 16.299805,40.3562 21.337036,40.3562 C26.374146,40.3562 30.679688,38.559753 34.256348,34.964417 C37.831665,31.369873 39.619995,27.039185 39.619995,21.975586 ZM32.99707,14.847412 C33.55664,15.410034 33.52466,15.973511 32.90381,16.536133 C32.90381,16.536133 19.284912,29.853088 19.284912,29.853088 C19.098267,30.04065 18.849121,30.1344 18.538574,30.1344 C18.165405,30.1344 17.88562,30.04065 17.699097,29.853088 C17.699097,29.853088 12.38208,24.507385 12.38208,24.507385 C11.822388,23.944763 11.822388,23.382141 12.38208,22.819519 C12.941772,22.256897 13.501465,22.256897 14.061157,22.819519 C14.061157,22.819519 18.538574,27.320496 18.538574,27.320496 C18.538574,27.320496 31.317993,14.847412 31.317993,14.847412 C31.877686,14.28479 32.437378,14.28479 32.99707,14.847412 Z"/>
</svg>