<svg xmlns="http://www.w3.org/2000/svg"
 xmlns:xlink="http://www.w3.org/1999/xlink"
 width="32px" height="33px"  viewBox="0 0 32 33">
<path fill-rule="evenodd"  fill="#ffffff"
 d="M30.179688,1.9375 C30.648438,2.4052734 30.882812,3.2460938 30.882812,4.4570312 C30.882812,14.885742 30.86267,22.717773 30.824219,27.953125 C30.824219,29.164062 30.579712,30.013672 30.091797,30.500977 C29.602905,30.990234 28.753296,31.234375 27.542969,31.234375 C27.542969,31.234375 17.875,31.234375 17.875,31.234375 C17.210327,31.234375 16.741577,31.11621 16.46875,30.881836 C16.194946,30.648438 16.077759,30.199219 16.117188,29.535156 C16.117188,28.402344 16.117188,26.71289 16.117188,24.46582 C16.117188,22.220703 16.136353,20.53125 16.175781,19.39746 C16.175781,18.811523 16.077759,18.41211 15.8828125,18.19629 C15.68689,17.982422 15.31604,17.894531 14.769531,17.933594 C14.222046,18.011719 13.401733,18.011719 12.308594,17.933594 C11.839844,17.933594 11.605469,17.757812 11.605469,17.405273 C11.605469,17.015625 11.839844,16.819336 12.308594,16.819336 C12.50354,16.819336 12.786499,16.819336 13.158203,16.819336 C13.528931,16.819336 13.861328,16.819336 14.154297,16.819336 C14.447266,16.819336 14.730103,16.819336 15.003906,16.819336 C15.472656,16.859375 15.794922,16.78125 15.970703,16.58496 C16.146484,16.390625 16.214233,16.079102 16.175781,15.647461 C16.097046,14.515625 16.097046,13.421875 16.175781,12.366211 C16.214233,11.1171875 16.62439,10.189453 17.40625,9.583984 C18.187134,8.978516 19.202515,8.7734375 20.453125,8.96875 C21.429077,9.084961 22.307983,9.34082 23.089844,9.730469 C23.128296,9.730469 23.167603,9.75 23.207031,9.7890625 C23.714233,10.0234375 23.910156,10.296875 23.792969,10.608398 C23.597046,11.0390625 23.18689,11.1171875 22.5625,10.842773 C21.507812,10.374023 20.530884,10.139648 19.632812,10.139648 C18.460938,10.139648 17.757812,10.707031 17.523438,11.838867 C17.40625,12.269531 17.337524,12.71875 17.31836,13.1875 C17.298218,13.655273 17.298218,14.183594 17.31836,14.769531 C17.337524,15.354492 17.347656,15.8046875 17.347656,16.11621 C17.347656,16.195312 17.347656,16.273438 17.347656,16.350586 C17.386108,16.664062 17.699219,16.819336 18.285156,16.819336 C18.285156,16.819336 22.796875,16.819336 22.796875,16.819336 C23.460571,16.819336 23.792969,17.015625 23.792969,17.405273 C23.792969,17.953125 23.441406,18.1875 22.738281,18.108398 C21.800781,18.108398 20.315796,18.07129 18.285156,17.992188 C17.894165,17.953125 17.630493,18.011719 17.49414,18.167969 C17.356812,18.324219 17.289062,18.597656 17.289062,18.988281 C17.366821,22.230469 17.366821,25.492188 17.289062,28.773438 C17.289062,29.515625 17.640625,29.886719 18.34375,29.886719 C19.28125,29.886719 20.257202,29.896484 21.273438,29.91504 C22.288696,29.936523 23.421265,29.964844 24.671875,30.003906 C25.921509,30.042969 26.898438,30.061523 27.601562,30.061523 C28.382446,30.061523 28.890625,29.936523 29.125,29.680664 C29.359375,29.427734 29.495728,28.890625 29.535156,28.069336 C29.535156,28.069336 29.710938,4.866211 29.710938,4.866211 C29.710938,3.8125 29.59375,3.1777344 29.359375,2.961914 C29.125,2.7480469 28.460327,2.6210938 27.367188,2.5820312 C22.328125,2.4257812 14.730103,2.3466797 4.5742188,2.3466797 C3.6367188,2.3466797 3.0699463,2.4550781 2.875,2.6699219 C2.6790771,2.8847656 2.5426025,3.4804688 2.4648438,4.4570312 C2.4648438,4.495117 2.40625,12.191406 2.2890625,27.541992 C2.2890625,28.59668 2.4154053,29.242188 2.6699219,29.476562 C2.923462,29.710938 3.5579834,29.827148 4.5742188,29.827148 C6.8392334,29.827148 8.519165,29.847656 9.613281,29.886719 C10.433594,29.886719 10.862915,30.082031 10.902344,30.472656 C10.902344,30.941406 10.4921875,31.175781 9.671875,31.175781 C9.671875,31.175781 3.7539062,31.175781 3.7539062,31.175781 C2.0738525,31.09668 1.1949463,30.179688 1.1171875,28.421875 C1.1171875,28.421875 1.1171875,16.292969 1.1171875,16.292969 C1.1171875,16.292969 1.1757812,16.292969 1.1757812,16.292969 C1.1757812,16.292969 1.1757812,4.338867 1.1757812,4.338867 C1.1757812,3.1669922 1.4101562,2.3466797 1.8789062,1.8779297 C2.3476562,1.4091797 3.1478271,1.1953125 4.28125,1.234375 C4.28125,1.234375 27.660156,1.234375 27.660156,1.234375 C28.870483,1.234375 29.710938,1.46875 30.179688,1.9375 Z"/>
</svg>