<svg xmlns="http://www.w3.org/2000/svg"
 xmlns:xlink="http://www.w3.org/1999/xlink"
 width="34px" height="29px"  viewBox="0 0 34 29">
<path fill-rule="evenodd"  fill="#ffffff"
 d="M31.882812,5.3271484 C31.569702,5.953125 31.276733,6.381836 31.003906,6.616211 C30.45642,6.96875 30.03711,7.4277344 29.74414,7.993164 C29.451172,8.560547 29.255249,9.068359 29.158203,9.516602 C29.06018,9.966797 28.97229,10.5625 28.894531,11.3046875 C28.50354,14.9375 27.067993,18.160156 24.58789,20.972656 C22.106812,23.785156 19.089233,25.582031 15.535156,26.362305 C10.964844,27.378906 6.7460938,26.714844 2.8789062,24.370117 C2.8394775,24.332031 2.7324219,24.273438 2.5566406,24.195312 C2.3808594,24.117188 2.2728271,24.058594 2.234375,24.019531 C2.1949463,23.980469 2.1263428,23.892578 2.0292969,23.754883 C1.932251,23.61914 1.9414062,23.492188 2.0585938,23.374023 C2.097046,23.21875 2.1656494,23.111328 2.2636719,23.052734 C2.3607178,22.993164 2.4586182,22.97461 2.5566406,22.993164 C2.6536865,23.013672 2.770874,23.033203 2.9082031,23.052734 C3.0445557,23.072266 3.1517334,23.081055 3.2304688,23.081055 C5.4954834,23.31543 7.2926025,23.160156 8.621094,22.612305 C9.207031,22.457031 9.558594,22.55371 9.675781,22.90625 C9.75354,23.257812 9.519165,23.511719 8.972656,23.667969 C8.621094,23.785156 8.102905,23.930664 7.419922,24.107422 C6.735962,24.283203 6.1986084,24.429688 5.8085938,24.545898 C8.035156,25.445312 10.163696,25.83496 12.1953125,25.71875 C16.491821,25.484375 20.007446,24.009766 22.742188,21.294922 C25.475952,18.580078 27.155884,15.328125 27.78125,11.5390625 C27.859009,11.1484375 27.898438,10.875 27.898438,10.71875 C27.898438,10.640625 27.898438,10.4453125 27.898438,10.131836 C27.898438,9.8203125 27.898438,9.614258 27.898438,9.516602 C27.898438,9.419922 27.907593,9.223633 27.927734,8.931641 C27.9469,8.638672 27.986328,8.433594 28.044922,8.316406 C28.103516,8.199219 28.171265,8.033203 28.25,7.8183594 C28.327759,7.6035156 28.434937,7.4375 28.572266,7.3203125 C28.708618,7.203125 28.87439,7.076172 29.070312,6.939453 C29.265259,6.8027344 29.480469,6.6757812 29.714844,6.5585938 C29.636108,6.5195312 29.558228,6.4609375 29.480469,6.381836 C29.480469,6.381836 29.363281,6.323242 29.363281,6.323242 C29.246094,6.323242 29.06018,6.3632812 28.80664,6.4414062 C28.552124,6.5195312 28.33789,6.548828 28.16211,6.5283203 C27.986328,6.5097656 27.839844,6.381836 27.722656,6.147461 C27.605469,5.913086 27.595337,5.729492 27.69336,5.591797 C27.790405,5.455078 27.957031,5.3183594 28.191406,5.1816406 C28.425781,5.044922 28.58142,4.9375 28.660156,4.8583984 C28.660156,4.8583984 29.011719,4.3310547 29.011719,4.3310547 C29.011719,4.3310547 28.835938,4.1552734 28.835938,4.1552734 C27.702515,4.6240234 26.53064,4.4296875 25.320312,3.5703125 C23.640259,2.4375 21.892578,2.3603516 20.076172,3.334961 C18.259766,4.3125 17.312134,5.8359375 17.234375,7.9052734 C17.15564,9.1171875 17.019165,9.810547 16.824219,9.985352 C16.628296,10.162109 15.905884,10.131836 14.65625,9.897461 C11.2578125,9.3125 7.9765625,7.5546875 4.8125,4.6240234 C4.3043213,5.40625 4.157837,6.3447266 4.373047,7.4375 C4.5872803,8.53125 5.085327,9.5078125 5.8671875,10.366211 C5.9449463,10.4453125 6.1015625,10.552734 6.3359375,10.689453 C6.5703125,10.826172 6.706665,10.944336 6.7460938,11.041016 C6.784546,11.138672 6.784546,11.325195 6.7460938,11.59668 C6.6289062,11.831055 6.482422,11.96875 6.3066406,12.0078125 C6.1308594,12.046875 5.8964844,12.017578 5.6035156,11.919922 C5.310547,11.822266 5.1054688,11.7734375 4.9882812,11.7734375 C4.7539062,11.6953125 4.5386963,11.636719 4.34375,11.59668 C4.6953125,13.628906 5.788452,15.0546875 7.625,15.874023 C7.625,15.874023 8.09375,15.9921875 8.09375,15.9921875 C8.4453125,16.07129 8.659546,16.167969 8.738281,16.285156 C8.81604,16.401367 8.835327,16.558594 8.796875,16.753906 C8.71814,17.104492 8.2109375,17.320312 7.2734375,17.39746 C7.2734375,17.39746 6.6875,17.515625 6.6875,17.515625 C7.390625,18.960938 8.581665,19.898438 10.261719,20.327148 C10.261719,20.327148 10.671875,20.327148 10.671875,20.327148 C10.710327,20.327148 10.827515,20.347656 11.0234375,20.385742 C11.218384,20.425781 11.354858,20.464844 11.433594,20.503906 C11.511353,20.542969 11.589233,20.611328 11.667969,20.708008 C11.745728,20.80664 11.765015,20.953125 11.7265625,21.148438 C11.647827,21.579102 11.237671,21.695312 10.496094,21.5 C8.542358,21.148438 7.0775146,20.191406 6.1015625,18.62793 C6.062134,18.589844 5.984375,18.481445 5.8671875,18.30664 C5.75,18.13086 5.6712646,18.003906 5.6328125,17.925781 C5.593384,17.847656 5.53479,17.730469 5.4570312,17.573242 C5.378296,17.417969 5.3398438,17.28125 5.3398438,17.164062 C5.3398438,17.046875 5.348999,16.910156 5.3691406,16.753906 C5.3883057,16.597656 5.4368896,16.441406 5.515625,16.285156 C5.515625,16.089844 5.5247803,15.97168 5.544922,15.933594 C5.564087,15.894531 5.4761963,15.796875 5.28125,15.639648 C5.28125,15.639648 5.046875,15.464844 5.046875,15.464844 C4.0306396,14.449219 3.40625,13.199219 3.171875,11.714844 C3.171875,11.675781 3.1517334,11.558594 3.1132812,11.362305 C3.0738525,11.167969 3.0546875,11.050781 3.0546875,11.011719 C3.0546875,10.972656 3.0546875,10.884766 3.0546875,10.74707 C3.0546875,10.610352 3.0839844,10.512695 3.1425781,10.454102 C3.2011719,10.396484 3.2890625,10.337891 3.40625,10.27832 C3.5234375,10.219727 3.6790771,10.171875 3.875,10.131836 C4.2265625,10.094727 4.2650146,9.897461 3.9921875,9.546875 C3.9134521,9.46875 3.875,9.410156 3.875,9.370117 C3.0152588,7.6123047 2.9375,5.7773438 3.640625,3.8623047 C3.875,3.1992188 4.1185303,2.8476562 4.373047,2.8085938 C4.626587,2.7695312 4.9882812,3.0039062 5.4570312,3.5117188 C7.9957275,6.2851562 10.984009,8.042969 14.421875,8.785156 C15.0078125,8.901367 15.417969,8.892578 15.652344,8.754883 C15.886719,8.619141 16.023071,8.2578125 16.0625,7.671875 C16.414062,5.25 17.565796,3.4726562 19.519531,2.3388672 C21.47229,1.2070312 23.405884,1.2070312 25.320312,2.3388672 C26.960938,3.2773438 28.50354,3.2773438 29.949219,2.3388672 C30.45642,2.1044922 30.828125,2.1044922 31.0625,2.3388672 C31.257446,2.5351562 31.21814,2.8867188 30.945312,3.3935547 C30.905884,3.5507812 30.828125,3.7460938 30.710938,3.9804688 C30.59375,4.2148438 30.515015,4.3896484 30.476562,4.5078125 C30.632202,4.6640625 30.84729,4.6835938 31.121094,4.5664062 C31.238281,4.5273438 31.31604,4.5078125 31.355469,4.5078125 C31.355469,4.5078125 31.355469,4.5078125 31.355469,4.5078125 C31.979858,4.5078125 32.15564,4.78125 31.882812,5.3271484 C31.882812,5.3271484 31.882812,5.3271484 31.882812,5.3271484 Z"/>
</svg>