<svg xmlns="http://www.w3.org/2000/svg"
 xmlns:xlink="http://www.w3.org/1999/xlink"
 width="33px" height="33px"  viewBox="0 0 33 33">
<path fill-rule="evenodd"  fill="#ffffff"
 d="M32.0,28.30371 C32.0,29.358398 31.78479,30.101562 31.355469,30.53125 C30.92517,30.960938 30.183594,31.194336 29.128906,31.234375 C29.128906,31.234375 4.8125,31.234375 4.8125,31.234375 C2.9759521,31.234375 2.0384521,30.317383 2.0,28.480469 C2.0,28.480469 2.0,22.503906 2.0,22.503906 C2.0,21.799805 2.2142334,21.449219 2.6445312,21.449219 C2.9960938,21.488281 3.171875,21.839844 3.171875,22.503906 C3.171875,22.503906 3.171875,28.1875 3.171875,28.1875 C3.171875,29.4375 3.7769775,30.061523 4.9882812,30.061523 C4.9882812,30.061523 29.011719,30.061523 29.011719,30.061523 C30.222046,30.061523 30.828125,29.476562 30.828125,28.30371 C30.828125,28.30371 30.828125,18.870117 30.828125,18.870117 C30.828125,18.441406 30.74939,18.138672 30.59375,17.961914 C30.437134,17.78711 30.163452,17.71875 29.773438,17.757812 C29.460327,17.836914 29.167358,17.836914 28.894531,17.757812 C27.605469,17.5625 26.580078,17.669922 25.81836,18.080078 C25.05664,18.489258 24.460571,19.338867 24.03125,20.62793 C23.640259,21.996094 22.692749,23.109375 21.189453,23.96875 C19.68518,24.828125 18.230469,25.179688 16.824219,25.023438 C15.066406,24.828125 13.522827,24.203125 12.1953125,23.148438 C10.866821,22.092773 10.007202,20.785156 9.6171875,19.222656 C9.343384,18.128906 8.6796875,17.639648 7.625,17.757812 C7.625,17.757812 3.2890625,17.757812 3.2890625,17.757812 C2.4293213,17.836914 2.0,17.464844 2.0,16.643555 C2.0,16.643555 2.0,3.5195312 2.0,3.5195312 C2.0777588,1.9960938 2.9960938,1.234375 4.7539062,1.234375 C4.7539062,1.234375 25.4375,1.234375 25.4375,1.234375 C25.4375,1.234375 29.246094,1.234375 29.246094,1.234375 C31.081665,1.234375 32.0,2.1523438 32.0,3.9882812 C32.0,3.9882812 32.0,16.234375 32.0,16.234375 C32.0,16.234375 32.0,28.30371 32.0,28.30371 ZM21.951172,21.770508 C23.220093,20.501953 23.855469,18.910156 23.855469,16.996094 C23.855469,15.160156 23.220093,13.626953 21.951172,12.396484 C20.681274,11.166016 19.069946,10.511719 17.117188,10.433594 C15.359375,10.394531 13.806641,11.058594 12.458984,12.425781 C11.111328,13.792969 10.4375,15.354492 10.4375,17.112305 C10.4375,18.910156 11.130493,20.492188 12.517578,21.858398 C13.903687,23.226562 15.456421,23.832031 17.175781,23.675781 C19.089233,23.675781 20.681274,23.041016 21.951172,21.770508 ZM30.564453,16.234375 C30.778687,16.039062 30.866577,15.6875 30.828125,15.1796875 C30.74939,11.5078125 30.74939,7.854492 30.828125,4.2226562 C30.828125,3.5585938 30.68164,3.0800781 30.388672,2.7861328 C30.095703,2.493164 29.597656,2.368164 28.894531,2.4052734 C28.894531,2.4052734 17.117188,2.4052734 17.117188,2.4052734 C17.117188,2.4052734 4.9296875,2.4052734 4.9296875,2.4052734 C4.3043213,2.4052734 3.8548584,2.5332031 3.5820312,2.7861328 C3.3082275,3.0410156 3.171875,3.4804688 3.171875,4.104492 C3.171875,4.104492 3.171875,15.296875 3.171875,15.296875 C3.171875,15.765625 3.2597656,16.079102 3.4355469,16.234375 C3.6113281,16.390625 3.9134521,16.449219 4.34375,16.410156 C6.4136963,16.410156 7.5855713,16.429688 7.859375,16.46875 C8.405884,16.58496 8.796875,16.546875 9.03125,16.350586 C9.265625,16.15625 9.441406,15.785156 9.558594,15.238281 C9.987915,13.441406 10.944702,11.966797 12.4296875,10.814453 C13.913696,9.662109 15.535156,9.125 17.292969,9.203125 C19.050781,9.28125 20.62268,9.84668 22.009766,10.901367 C23.395874,11.957031 24.324219,13.3828125 24.792969,15.1796875 C24.987915,16.079102 25.496094,16.507812 26.316406,16.46875 C27.253906,16.350586 28.308594,16.332031 29.480469,16.410156 C29.98767,16.488281 30.349243,16.429688 30.564453,16.234375 ZM28.484375,5.100586 C28.71875,5.375 28.835938,6.1953125 28.835938,7.5625 C28.835938,8.850586 28.679321,9.662109 28.367188,9.993164 C28.054077,10.326172 27.292358,10.4921875 26.082031,10.4921875 C24.83142,10.4921875 24.040405,10.316406 23.708984,9.964844 C23.376587,9.612305 23.210938,8.753906 23.210938,7.385742 C23.210938,6.0585938 23.34729,5.2773438 23.621094,5.0429688 C23.89392,4.8085938 24.772827,4.6914062 26.257812,4.6914062 C27.507446,4.6914062 28.25,4.8291016 28.484375,5.100586 ZM27.722656,7.4453125 C27.683228,6.78125 27.55603,6.3222656 27.341797,6.0683594 C27.126587,5.814453 26.70642,5.765625 26.082031,5.9208984 C25.456665,5.8046875 25.007202,5.8535156 24.734375,6.0683594 C24.460571,6.283203 24.343384,6.7226562 24.382812,7.385742 C24.421265,8.088867 24.529297,8.579102 24.705078,8.850586 C24.88086,9.125 25.30017,9.241211 25.964844,9.203125 C26.62854,9.1640625 27.08728,9.027344 27.341797,8.792969 C27.595337,8.558594 27.722656,8.109375 27.722656,7.4453125 C27.722656,7.4453125 27.722656,7.4453125 27.722656,7.4453125 ZM19.636719,20.921875 C19.59729,21.078125 19.607422,21.18457 19.666016,21.243164 C19.72461,21.302734 19.68518,21.371094 19.548828,21.449219 C19.411499,21.527344 19.333618,21.576172 19.314453,21.595703 C19.294312,21.615234 19.20642,21.664062 19.050781,21.742188 C19.050781,21.742188 18.816406,21.799805 18.816406,21.799805 C17.917358,22.074219 17.312134,22.191406 17.0,22.152344 C15.437134,22.152344 14.108765,21.47754 13.015625,20.13086 C11.921509,18.783203 11.589233,17.367188 12.019531,15.881836 C12.019531,15.844727 12.038696,15.746094 12.078125,15.588867 C12.116577,15.433594 12.155884,15.317383 12.1953125,15.238281 C12.233765,15.160156 12.292358,15.091797 12.371094,15.032227 C12.448853,14.973633 12.56604,14.964844 12.722656,15.003906 C13.112671,15.042969 13.269165,15.4140625 13.191406,16.11621 C12.917603,17.757812 13.327759,19.03711 14.421875,19.954102 C15.515015,20.873047 16.86267,21.117188 18.464844,20.6875 C19.12854,20.453125 19.519531,20.53125 19.636719,20.921875 C19.636719,20.921875 19.636719,20.921875 19.636719,20.921875 Z"/>
</svg>