<svg xmlns="http://www.w3.org/2000/svg"
 xmlns:xlink="http://www.w3.org/1999/xlink"
 width="30px" height="33px"  viewBox="0 0 30 33">
<path fill-rule="evenodd"  fill="#ffffff"
 d="M18.28125,23.850586 C18.593384,25.842773 18.241821,27.503906 17.226562,28.831055 C16.523438,29.730469 15.46875,30.375 14.0625,30.765625 C13.046265,31.0 12.284546,31.135742 11.777344,31.175781 C11.777344,31.175781 11.542969,31.175781 11.542969,31.175781 C11.542969,31.175781 8.847656,31.175781 8.847656,31.175781 C8.613281,31.175781 8.261719,31.135742 7.7929688,31.057617 C6.190796,30.823242 4.921875,30.511719 3.984375,30.120117 C2.6953125,29.496094 1.8164062,28.617188 1.3476562,27.484375 C1.19104,26.9375 1.0931396,26.527344 1.0546875,26.253906 C1.0546875,26.253906 1.0546875,25.081055 1.0546875,25.081055 C1.0931396,25.003906 1.1132812,24.925781 1.1132812,24.84668 C1.1517334,24.339844 1.3082275,23.832031 1.5820312,23.323242 C1.6992188,23.088867 1.7769775,22.953125 1.8164062,22.914062 C2.0113525,22.835938 2.2164307,22.972656 2.4316406,23.323242 C2.645874,23.675781 2.6953125,23.988281 2.578125,24.261719 C2.34375,24.730469 2.2650146,25.414062 2.34375,26.311523 C2.4993896,27.40625 3.0853271,28.226562 4.1015625,28.773438 C4.6875,29.124023 5.3118896,29.358398 5.9765625,29.476562 C7.343384,29.827148 9.042603,29.964844 11.074219,29.886719 C12.128906,29.886719 13.066406,29.75 13.886719,29.476562 C15.019165,29.164062 15.878906,28.59668 16.464844,27.777344 C16.894165,27.113281 17.109375,26.214844 17.109375,25.081055 C17.147827,23.753906 16.65979,22.640625 15.644531,21.742188 C15.565796,21.664062 15.46875,21.624023 15.3515625,21.624023 C13.085571,21.351562 11.151978,21.214844 9.550781,21.214844 C8.027344,21.292969 6.796875,21.46875 5.859375,21.742188 C5.7806396,21.742188 5.673462,21.761719 5.5371094,21.799805 C5.3997803,21.839844 5.2926025,21.878906 5.2148438,21.917969 C5.0976562,21.917969 4.970337,21.839844 4.8339844,21.683594 C4.6966553,21.527344 4.5996094,21.371094 4.5410156,21.214844 C4.482422,21.05957 4.491577,20.941406 4.5703125,20.862305 C6.2886963,20.199219 8.632446,19.90625 11.6015625,19.984375 C11.757202,19.984375 12.011719,20.003906 12.363281,20.042969 C12.714844,20.082031 12.987671,20.100586 13.183594,20.100586 C13.066406,19.984375 12.870483,19.81836 12.597656,19.603516 C12.323853,19.388672 12.128906,19.242188 12.011719,19.164062 C11.03479,18.342773 10.6640625,17.386719 10.8984375,16.292969 C10.8984375,16.214844 10.878296,16.15625 10.839844,16.11621 C10.839844,16.11621 10.722656,16.11621 10.722656,16.11621 C9.823608,16.273438 8.944702,16.273438 8.0859375,16.11621 C5.390625,15.647461 3.5742188,14.1640625 2.6367188,11.663086 C2.1679688,10.453125 2.0306396,9.066406 2.2265625,7.5039062 C2.4215088,6.1367188 2.831665,5.0429688 3.4570312,4.2226562 C4.3945312,2.8945312 5.859375,1.9960938 7.8515625,1.5273438 C8.046509,1.4882812 8.310181,1.4394531 8.642578,1.3808594 C8.973999,1.3222656 9.218384,1.2929688 9.375,1.2929688 C11.8359375,1.1367188 14.491821,1.1367188 17.34375,1.2929688 C17.49939,1.2929688 17.616577,1.4296875 17.695312,1.703125 C17.773071,1.8984375 17.753906,2.0839844 17.636719,2.258789 C17.519531,2.4355469 17.34375,2.5234375 17.109375,2.5234375 C17.109375,2.5234375 14.355469,2.5234375 14.355469,2.5234375 C14.238281,2.5234375 14.140259,2.5429688 14.0625,2.5820312 C14.140259,2.6210938 14.247437,2.6992188 14.384766,2.8164062 C14.521118,2.9335938 14.609009,3.03125 14.6484375,3.1083984 C16.09314,4.4765625 16.894165,5.9804688 17.050781,7.620117 C17.245728,10.121094 16.65979,12.131836 15.292969,13.655273 C14.941406,14.0078125 14.296875,14.496094 13.359375,15.120117 C13.046265,15.354492 12.81189,15.550781 12.65625,15.707031 C11.87439,16.371094 11.815796,17.09375 12.480469,17.874023 C12.792603,18.226562 13.183594,18.539062 13.652344,18.811523 C15.370728,19.984375 16.26892,20.609375 16.347656,20.6875 C16.347656,20.6875 16.347656,20.6875 16.347656,20.6875 C17.440796,21.624023 18.085327,22.679688 18.28125,23.850586 C18.28125,23.850586 18.28125,23.850586 18.28125,23.850586 ZM14.53125,12.542969 C15.194946,11.878906 15.62439,10.842773 15.8203125,9.4375 C15.975952,7.953125 15.780884,6.7617188 15.234375,5.8623047 C14.1796875,3.9882812 12.7734375,2.9140625 11.015625,2.6396484 C9.375,2.4052734 7.812134,2.6601562 6.328125,3.4013672 C5.0775146,4.0273438 4.257202,4.9648438 3.8671875,6.2148438 C3.5540771,6.9570312 3.3984375,7.8945312 3.3984375,9.027344 C3.3984375,10.121094 3.6712646,11.15625 4.21875,12.131836 C5.3511963,14.046875 7.1676025,15.003906 9.667969,15.003906 C11.308594,14.964844 12.929077,14.144531 14.53125,12.542969 C14.53125,12.542969 14.53125,12.542969 14.53125,12.542969 ZM28.945312,15.4140625 C28.945312,15.4140625 28.945312,15.765625 28.945312,15.765625 C28.788696,16.079102 28.495728,16.234375 28.066406,16.234375 C28.066406,16.234375 24.960938,16.234375 24.960938,16.234375 C24.687134,16.234375 24.550781,16.350586 24.550781,16.58496 C24.550781,16.58496 24.550781,19.75 24.550781,19.75 C24.550781,20.33496 24.354858,20.62793 23.964844,20.62793 C23.534546,20.550781 23.320312,20.257812 23.320312,19.75 C23.320312,19.75 23.320312,16.527344 23.320312,16.527344 C23.320312,16.332031 23.22229,16.234375 23.027344,16.234375 C23.027344,16.234375 19.804688,16.234375 19.804688,16.234375 C19.257202,16.234375 18.984375,16.039062 18.984375,15.647461 C18.984375,15.21875 19.257202,15.003906 19.804688,15.003906 C19.804688,15.003906 22.96875,15.003906 22.96875,15.003906 C23.203125,15.003906 23.320312,14.8671875 23.320312,14.592773 C23.320312,14.592773 23.320312,11.546875 23.320312,11.546875 C23.320312,11.546875 23.320312,11.1953125 23.320312,11.1953125 C23.398071,10.765625 23.613281,10.589844 23.964844,10.666992 C24.354858,10.666992 24.550781,10.842773 24.550781,11.1953125 C24.550781,11.1953125 24.550781,12.65918 24.550781,12.65918 C24.550781,12.816406 24.550781,13.03125 24.550781,13.3046875 C24.550781,13.578125 24.550781,13.831055 24.550781,14.06543 C24.550781,14.300781 24.550781,14.515625 24.550781,14.7109375 C24.550781,14.90625 24.667969,15.003906 24.902344,15.003906 C24.902344,15.003906 28.066406,15.003906 28.066406,15.003906 C28.45642,15.003906 28.74939,15.140625 28.945312,15.4140625 C28.945312,15.4140625 28.945312,15.4140625 28.945312,15.4140625 Z"/>
</svg>